<?xml version="1.0" encoding="UTF-8" standalone="no"?>
<svg width="173px" height="37px" viewBox="0 0 173 37" version="1.1" xmlns="http://www.w3.org/2000/svg" xmlns:xlink="http://www.w3.org/1999/xlink">
    <!-- Generator: Sketch 41.2 (35397) - http://www.bohemiancoding.com/sketch -->
    <title>logotype</title>
    <desc>Created with Sketch.</desc>
    <defs></defs>
    <g id="Design" stroke="none" stroke-width="1" fill="none" fill-rule="evenodd">
        <g id="index-lg" transform="translate(-48.000000, -79.000000)" fill="#FFFFFF">
            <path d="M63.9,96.7837704 L68.5,103.58377 L67,98.4837704 L72.4,90.5837704 L81.2,103.58377 L79.7,98.4837704 L80.8,96.8837704 L93.4,115.38377 C96.6,109.78377 97.7,102.78377 95.4,95.4837704 C93.1,88.1837704 87.5,82.4837704 80.3,80.2837704 C63.5,74.8837704 48,87.2837704 48,103.18377 C48,107.58377 49.2,111.68377 51.2,115.18377 L63.9,96.7837704 L63.9,96.7837704 Z M114,89.9837704 L117.4,89.9837704 L125.3,100.28377 L125.3,89.9837704 L128.9,89.9837704 L128.9,106.78377 L125.8,106.78377 L117.7,96.0837704 L117.7,106.78377 L114,106.78377 L114,89.9837704 L114,89.9837704 Z M131.4,100.38377 L131.4,100.38377 C131.4,96.6837704 134.4,93.6837704 138.4,93.6837704 C142.4,93.6837704 145.3,96.6837704 145.3,100.28377 L145.3,100.28377 C145.3,103.98377 142.3,106.98377 138.3,106.98377 C134.4,107.08377 131.4,104.08377 131.4,100.38377 L131.4,100.38377 Z M141.7,100.38377 L141.7,100.38377 C141.7,98.4837704 140.3,96.7837704 138.3,96.7837704 C136.2,96.7837704 135,98.3837704 135,100.28377 L135,100.28377 C135,102.18377 136.4,103.88377 138.4,103.88377 C140.5,103.88377 141.7,102.28377 141.7,100.38377 L141.7,100.38377 Z M147.4,93.8837704 L151,93.8837704 L151,96.4837704 C151.7,94.6837704 152.9,93.5837704 155.1,93.6837704 L155.1,97.4837704 L155,97.4837704 C152.6,97.4837704 151.1,98.9837704 151.1,101.98377 L151.1,106.78377 L147.5,106.78377 L147.5,93.8837704 L147.4,93.8837704 Z M156.1,100.38377 L156.1,100.38377 C156.1,96.0837704 158.9,93.6837704 162,93.6837704 C163.9,93.6837704 165.1,94.5837704 166,95.5837704 L166,89.2837704 L169.6,89.2837704 L169.6,106.78377 L166,106.78377 L166,104.98377 C165.1,106.18377 163.9,107.08377 162,107.08377 C159,106.98377 156.1,104.68377 156.1,100.38377 L156.1,100.38377 Z M166.1,100.38377 L166.1,100.38377 C166.1,98.1837704 164.7,96.7837704 163,96.7837704 C161.3,96.7837704 159.9,98.1837704 159.9,100.38377 L159.9,100.38377 C159.9,102.48377 161.3,103.98377 163,103.98377 C164.7,103.98377 166.1,102.48377 166.1,100.38377 L166.1,100.38377 Z M171.2,89.9837704 L175.3,89.9837704 L179.7,101.78377 L184.1,89.9837704 L188.1,89.9837704 L181.3,106.88377 L178,106.88377 L171.2,89.9837704 L171.2,89.9837704 Z M189.9,89.9837704 L196.8,89.9837704 C200.8,89.9837704 203.2,92.3837704 203.2,95.7837704 L203.2,95.7837704 C203.2,99.6837704 200.2,101.68377 196.4,101.68377 L193.6,101.68377 L193.6,106.68377 L189.9,106.68377 L189.9,89.9837704 L189.9,89.9837704 Z M196.5,98.4837704 C198.3,98.4837704 199.4,97.3837704 199.4,95.9837704 L199.4,95.9837704 C199.4,94.2837704 198.2,93.4837704 196.4,93.4837704 L193.5,93.4837704 L193.5,98.5837704 L196.5,98.5837704 L196.5,98.4837704 Z M205.3,89.9837704 L208.7,89.9837704 L216.6,100.28377 L216.6,89.9837704 L220.2,89.9837704 L220.2,106.78377 L217.1,106.78377 L209,96.0837704 L209,106.78377 L205.4,106.78377 L205.4,89.9837704 L205.3,89.9837704 Z" id="logotype"></path>
        </g>
    </g>
</svg>