<?xml version="1.0" encoding="UTF-8" standalone="no"?>
<svg width="128px" height="115px" viewBox="0 0 128 115" version="1.1" xmlns="http://www.w3.org/2000/svg" xmlns:xlink="http://www.w3.org/1999/xlink">
    <!-- Generator: Sketch 46.1 (44463) - http://www.bohemiancoding.com/sketch -->
    <title>vertical</title>
    <desc>Created with Sketch.</desc>
    <defs></defs>
    <g id="Page-1" stroke="none" stroke-width="1" fill="none" fill-rule="evenodd">
        <g id="vertical">
            <path d="M49.0376877,32.4652407 L53.043521,38.8387962 L61.818021,18.2908518 L75.3036877,50.8716296 L80.8684099,41.059574 L97.8858544,78.9597407 C105.51291,70.637574 110.202354,59.5720184 110.268799,47.3947962 C110.413188,21.3626296 89.4269655,0.143851773 63.3947988,0.000740661955 C37.3626322,-0.143648227 16.1438544,20.8412962 16.0007433,46.8747407 C15.933021,59.0481296 20.4972433,70.1584073 28.0271877,78.5623518 L49.0376877,32.4652407 Z" id="Fill-1" fill="#0F6EAA"></path>
            <path d="M14.6939,95.0008778 L21.7793222,107.008 L21.7793222,95 L24.7725444,95 L24.7725444,114.053922 L22.3779667,114.053922 L15.0932889,101.649167 L15.0932889,114.053922 L12,114.053922 L12,95.0008778 L14.6947778,95.0008778 L14.6939,95.0008778 Z M40.2416222,109.005822 C40.2416222,111.985878 38.2455556,114.369922 34.3534889,114.369922 C30.4623,114.369922 28.5663,112.085944 28.5663,109.0067 L28.5663,104.436989 C28.5663,101.456933 30.5614889,99.0728889 34.3534889,99.0728889 C38.2455556,99.0728889 40.2416222,101.356867 40.2416222,104.436111 L40.2416222,109.005822 L40.2416222,109.005822 Z M31.7596556,108.807444 C31.7596556,110.793856 32.6576222,111.7875 34.3534889,111.7875 C36.1503,111.7875 36.9482,110.694667 36.9482,108.807444 L36.9482,104.436111 C36.9482,102.548889 36.1494222,101.456933 34.3534889,101.456933 C32.5575556,101.456933 31.7587778,102.548889 31.7587778,104.436989 L31.7587778,108.807444 L31.7596556,108.807444 Z M51.6176222,102.350511 C51.2182333,102.052067 50.7187778,101.952878 50.2202,101.952878 C48.3242,101.952878 47.2269778,103.344156 47.0268444,105.727322 L47.0268444,114.072356 L43.7343,114.072356 L43.7343,99.2712667 L46.5282667,99.2712667 L46.7275222,101.755378 C47.6254889,99.8672778 48.8227778,99.0728889 50.3202667,99.0728889 C50.9189111,99.0728889 51.4174889,99.1720778 51.9169444,99.4696444 L51.6176222,102.350511 L51.6176222,102.350511 Z M62.2949111,100.3641 L62.2949111,95 L65.4882667,95 L65.4882667,114.072356 L62.6934222,114.072356 L62.4941667,112.681956 C61.4961333,113.773911 59.9995222,114.369922 58.5029111,114.270733 C55.5096889,114.270733 53.9121333,112.085067 53.9121333,108.708256 L53.9121333,104.635367 C53.9121333,101.159367 55.5096889,99.0728889 58.7021667,99.0728889 C59.9995222,99.0728889 61.2968778,99.4696444 62.2949111,100.363222 L62.2949111,100.3641 Z M62.2949111,103.045711 C61.7066303,102.147789 60.6684877,101.650698 59.6001333,101.755378 C57.9042667,101.755378 57.1054889,102.747267 57.1054889,104.833744 L57.1054889,108.807444 C57.1054889,110.793856 57.9042667,111.7875 59.5009444,111.7875 C60.5981667,111.7875 61.5962,111.290678 62.2949111,110.3971 L62.2949111,103.045711 L62.2949111,103.045711 Z" id="Shape" fill="#000000" fill-rule="nonzero"></path>
            <path d="M78.2673667,114.053044 L73.8811111,114.053044 L68,95.0008778 L72.6855778,95.0008778 L76.0738,108.992656 L79.4637778,95.0008778 L84.1493556,95.0008778 L78.2682444,114.053922 L78.2673667,114.053044 Z M86.5413,95.0008778 L86.5413,114.053044 L90.7283,114.053044 L90.7283,107.602256 L93.6197,107.602256 C97.2080556,107.602256 99.3015556,105.220844 99.3015556,101.350722 C99.3015556,97.3814111 97.1088667,95 93.3203778,95 L86.5413,95 L86.5413,95.0008778 Z M93.2211889,104.329022 L90.8283667,104.329022 L90.8283667,98.4742444 L93.2203111,98.4742444 C94.5167889,98.4742444 95.1145556,99.2677556 95.1145556,101.3516 C95.1145556,103.435444 94.5167889,104.329022 93.2203111,104.329022 L93.2211889,104.329022 Z M111.762489,105.519289 L111.762489,95.0008778 L115.450911,95.0008778 L115.450911,114.053044 L112.559511,114.053044 L105.980567,103.137 L105.980567,114.053044 L102.292144,114.053044 L102.292144,95.0008778 L105.381922,95.0008778 L111.762489,105.519289 L111.762489,105.519289 Z" id="Shape" fill="#0F6EAA" fill-rule="nonzero"></path>
        </g>
    </g>
</svg>