<?xml version="1.0" encoding="utf-8"?>
<!-- Generator: Adobe Illustrator 19.2.1, SVG Export Plug-In . SVG Version: 6.00 Build 0)  -->
<svg version="1.1" id="Layer_1" xmlns="http://www.w3.org/2000/svg" xmlns:xlink="http://www.w3.org/1999/xlink" x="0px" y="0px"
	 viewBox="0 0 159 36" style="enable-background:new 0 0 159 36;" xml:space="preserve">
<style type="text/css">
	.st0{fill:#0F6EAA;}
</style>
<path id="logotype-single-color" d="M57.9,11.8L65,23.9V11.8h3V31h-2.4l-7.3-12.5V31h-3.1V11.8H57.9z M83.5,25.9c0,3-2,5.4-5.9,5.4
	s-5.8-2.3-5.8-5.4v-4.6c0-3,2-5.4,5.8-5.4c3.9,0,5.9,2.3,5.9,5.4V25.9z M75,25.7c0,2,0.9,3,2.6,3c1.8,0,2.6-1.1,2.6-3v-4.4
	c0-1.9-0.8-3-2.6-3c-1.8,0-2.6,1.1-2.6,3V25.7z M94.9,19.2c-0.4-0.3-0.9-0.4-1.4-0.4c-1.9,0-3,1.4-3.2,3.8V31H87V16.1h2.8l0.2,2.5
	c0.9-1.9,2.1-2.7,3.6-2.7c0.6,0,1.1,0.1,1.6,0.4L94.9,19.2z M105.6,17.2v-5.4h3.2V31H106l-0.2-1.4c-1,1.1-2.5,1.7-4,1.6
	c-3,0-4.6-2.2-4.6-5.6v-4.1c0-3.5,1.6-5.6,4.8-5.6C103.3,15.9,104.6,16.3,105.6,17.2L105.6,17.2z M105.6,19.9
	c-0.6-0.9-1.6-1.4-2.7-1.3c-1.7,0-2.5,1-2.5,3.1v4c0,2,0.8,3,2.4,3c1.1,0,2.1-0.5,2.8-1.4L105.6,19.9L105.6,19.9z"/>
<polygon class="st0" points="121.7,31 117.3,31 111.4,11.8 116.1,11.8 119.5,25.9 122.9,11.8 127.6,11.8 "/>
<path class="st0" d="M136.8,11.8H130V31h4.2v-6.5h2.9c3.6,0,5.7-2.4,5.7-6.3v0C142.8,14.2,140.6,11.8,136.8,11.8z M136.7,21.2h-2.4
	v-5.9h2.4c1.3,0,1.9,0.8,1.9,2.9C138.6,20.3,138,21.2,136.7,21.2z"/>
<polygon class="st0" points="148.9,11.8 155.3,22.4 155.3,11.8 159,11.8 159,31 156.1,31 149.5,20 149.5,31 145.8,31 145.8,11.8 
	148.9,11.8 "/>
<path class="st0" d="M14.8,14.9l1.8,2.9l3.9-9.4l6.1,14.9l2.5-4.5L36.8,36c3.5-4,5.5-9.1,5.5-14.5C42.5,9.9,33.2,0.2,21.5,0
	S0.2,9.1,0,20.8c0,0.3,0,0.5,0,0.8C0,26.9,1.9,32,5.5,36L14.8,14.9z"/>
</svg>
