<svg xmlns="http://www.w3.org/2000/svg" width="124" height="28" viewBox="0 0 124 28">
  <title>nordvpn-logo-colorful</title>
  <g>
    <path d="M45.07,9.14l5.56,9.43V9.14H53v15H51.11l-5.72-9.74V24.1H43v-15h2.12Zm20.06,11c0,2.34-1.57,4.21-4.62,4.21S56,22.56,56,20.14V16.55c0-2.34,1.57-4.21,4.54-4.21s4.62,1.79,4.62,4.21v3.59ZM58.47,20c0,1.56.71,2.34,2,2.34s2-.86,2-2.34V16.55c0-1.48-.63-2.34-2-2.34s-2,.86-2,2.34V20Zm15.59-5.07A1.8,1.8,0,0,0,73,14.6c-1.49,0-2.35,1.09-2.51,3v6.55H67.88V12.49h2.19l.16,2A3.06,3.06,0,0,1,73,12.34a2.31,2.31,0,0,1,1.25.31l-.24,2.26Zm8.38-1.56V9.14H85v15H82.76L82.6,23a3.93,3.93,0,0,1-3.13,1.25c-2.35,0-3.6-1.72-3.6-4.37v-3.2c0-2.73,1.25-4.37,3.76-4.37a4.19,4.19,0,0,1,2.82,1Zm0,2.11a2.27,2.27,0,0,0-2.12-1c-1.33,0-2,.78-2,2.42V20q0,2.34,1.88,2.34a2.75,2.75,0,0,0,2.19-1.09V15.46Z"/>
    <path d="M94.8,24.1H91.36l-4.62-15h3.68l2.66,11,2.66-11h3.68l-4.62,15Zm6.5-15v15h3.29V19h2.27c2.82,0,4.46-1.87,4.46-4.91s-1.72-5-4.7-5H101.3Zm5.24,7.32h-1.88v-4.6h1.88c1,0,1.49.62,1.49,2.26s-.47,2.34-1.49,2.34Zm14.56.93V9.14H124v15h-2.27l-5.17-8.57V24.1h-2.9v-15h2.43l5,8.26Z" fill="#0f6eaa"/>
    <path d="M11.56,11.59,13,13.84l3-7.31,4.77,11.59,2-3.5,6,13.37A17,17,0,0,0,33,16.72a16.52,16.52,0,0,0-33-.54v.62A16.61,16.61,0,0,0,4.3,28l7.26-16.41Z" fill="#0f6eaa"/>
  </g>
</svg>
