<?xml version="1.0" encoding="UTF-8"?>
<svg width="24px" height="24px" viewBox="0 0 24 24" version="1.1" xmlns="http://www.w3.org/2000/svg" xmlns:xlink="http://www.w3.org/1999/xlink">
    <!-- Generator: Sketch 45.2 (43514) - http://www.bohemiancoding.com/sketch -->
    <title>atoms/icons/24/android</title>
    <desc>Created with Sketch.</desc>
    <defs>
        <path d="M15.281,2.98 C16.917,4.052 18,5.898 18,8 L6,8 C6,5.898 7.083,4.052 8.719,2.98 L7.584,1.277 C7.431,1.048 7.493,0.737 7.723,0.584 C7.953,0.431 8.263,0.493 8.416,0.723 L9.602,2.502 C10.337,2.181 11.147,2 12,2 C12.853,2 13.663,2.181 14.398,2.502 L15.584,0.723 C15.736,0.492 16.046,0.431 16.277,0.584 C16.507,0.737 16.569,1.048 16.416,1.277 L15.281,2.98 Z M6,19 L6,9 L18,9 L18,19 C18,19.552 17.552,20 17,20 L16,20 L16,23 C16,23.552 15.552,24 15,24 C14.448,24 14,23.552 14,23 L14,20 L10,20 L10,23 C10,23.552 9.552,24 9,24 C8.448,24 8,23.552 8,23 L8,20 L7,20 C6.448,20 6,19.552 6,19 Z M4,9 C4.552,9 5,9.448 5,10 L5,15 C5,15.552 4.552,16 4,16 C3.448,16 3,15.552 3,15 L3,10 C3,9.448 3.448,9 4,9 Z M20,9 C20.552,9 21,9.448 21,10 L21,15 C21,15.552 20.552,16 20,16 C19.448,16 19,15.552 19,15 L19,10 C19,9.448 19.448,9 20,9 Z M10,6 C10.5522847,6 11,5.55228475 11,5 C11,4.44771525 10.5522847,4 10,4 C9.44771525,4 9,4.44771525 9,5 C9,5.55228475 9.44771525,6 10,6 Z M14,6 C14.5522847,6 15,5.55228475 15,5 C15,4.44771525 14.5522847,4 14,4 C13.4477153,4 13,4.44771525 13,5 C13,5.55228475 13.4477153,6 14,6 Z" id="path-1"></path>
    </defs>
    <g id="Symbols" stroke="none" stroke-width="1" fill="none" fill-rule="evenodd">
        <g id="atoms/icons/24/android">
            <mask id="mask-2" fill="white">
                <use xlink:href="#path-1"></use>
            </mask>
            <use id="Combined-Shape" fill="#444444" fill-rule="nonzero" xlink:href="#path-1"></use>
            <g id="⚙️specs/clr/bw/bw-14" mask="url(#mask-2)" fill="#151922">
                <rect id="clr" x="0" y="0" width="24" height="24"></rect>
            </g>
        </g>
    </g>
</svg>