<?xml version="1.0" encoding="UTF-8"?>
<svg width="22px" height="16px" viewBox="0 0 22 16" version="1.1" xmlns="http://www.w3.org/2000/svg" xmlns:xlink="http://www.w3.org/1999/xlink">
    <!-- Generator: Sketch 45.2 (43514) - http://www.bohemiancoding.com/sketch -->
    <title>atoms/icons/24/01-placeholder</title>
    <desc>Created with Sketch.</desc>
    <defs>
        <rect id="path-1" x="0" y="0" width="22" height="16" rx="1"></rect>
    </defs>
    <g id="Chrome-Extension" stroke="none" stroke-width="1" fill="none" fill-rule="evenodd">
        <g id="locations" transform="translate(-24.000000, -214.000000)">
            <g id="Locations" transform="translate(24.000000, 162.000000)">
                <g id="Location" transform="translate(0.000000, 48.000000)">
                    <g id="🛠extension/flag-32x24/US" transform="translate(0.000000, 4.000000)">
                        <g id="flag-32x24-usa">
                            <mask id="mask-2" fill="white">
                                <use xlink:href="#path-1"></use>
                            </mask>
                            <use id="mask" fill="#ED2939" xlink:href="#path-1"></use>
                            <path d="M0,2 L22,2 L22,3.33333333 L0,3.33333333 L0,2 Z M0,4.66666667 L22,4.66666667 L22,6 L0,6 L0,4.66666667 Z M0,7.33333333 L22,7.33333333 L22,8.66666667 L0,8.66666667 L0,7.33333333 Z M0,10 L22,10 L22,11.3333333 L0,11.3333333 L0,10 Z M0,12.6666667 L22,12.6666667 L22,14 L0,14 L0,12.6666667 Z" id="Combined-Shape" fill="#F7F7F7" mask="url(#mask-2)"></path>
                            <rect id="Rectangle" fill="#0066B3" mask="url(#mask-2)" x="0" y="0" width="12.375" height="9.33333333"></rect>
                            <path d="M2.0625,2.66666667 C1.68280423,2.66666667 1.375,2.36818983 1.375,2 C1.375,1.63181017 1.68280423,1.33333333 2.0625,1.33333333 C2.44219577,1.33333333 2.75,1.63181017 2.75,2 C2.75,2.36818983 2.44219577,2.66666667 2.0625,2.66666667 Z M4.125,4 C3.74530423,4 3.4375,3.70152317 3.4375,3.33333333 C3.4375,2.9651435 3.74530423,2.66666667 4.125,2.66666667 C4.50469577,2.66666667 4.8125,2.9651435 4.8125,3.33333333 C4.8125,3.70152317 4.50469577,4 4.125,4 Z M4.125,6.66666667 C3.74530423,6.66666667 3.4375,6.36818983 3.4375,6 C3.4375,5.63181017 3.74530423,5.33333333 4.125,5.33333333 C4.50469577,5.33333333 4.8125,5.63181017 4.8125,6 C4.8125,6.36818983 4.50469577,6.66666667 4.125,6.66666667 Z M8.25,4 C7.87030423,4 7.5625,3.70152317 7.5625,3.33333333 C7.5625,2.9651435 7.87030423,2.66666667 8.25,2.66666667 C8.62969577,2.66666667 8.9375,2.9651435 8.9375,3.33333333 C8.9375,3.70152317 8.62969577,4 8.25,4 Z M8.25,6.66666667 C7.87030423,6.66666667 7.5625,6.36818983 7.5625,6 C7.5625,5.63181017 7.87030423,5.33333333 8.25,5.33333333 C8.62969577,5.33333333 8.9375,5.63181017 8.9375,6 C8.9375,6.36818983 8.62969577,6.66666667 8.25,6.66666667 Z M6.1875,2.66666667 C5.80780423,2.66666667 5.5,2.36818983 5.5,2 C5.5,1.63181017 5.80780423,1.33333333 6.1875,1.33333333 C6.56719577,1.33333333 6.875,1.63181017 6.875,2 C6.875,2.36818983 6.56719577,2.66666667 6.1875,2.66666667 Z M10.3125,2.66666667 C9.93280423,2.66666667 9.625,2.36818983 9.625,2 C9.625,1.63181017 9.93280423,1.33333333 10.3125,1.33333333 C10.6921958,1.33333333 11,1.63181017 11,2 C11,2.36818983 10.6921958,2.66666667 10.3125,2.66666667 Z M6.1875,5.33333333 C5.80780423,5.33333333 5.5,5.0348565 5.5,4.66666667 C5.5,4.29847683 5.80780423,4 6.1875,4 C6.56719577,4 6.875,4.29847683 6.875,4.66666667 C6.875,5.0348565 6.56719577,5.33333333 6.1875,5.33333333 Z M6.1875,8 C5.80780423,8 5.5,7.70152317 5.5,7.33333333 C5.5,6.9651435 5.80780423,6.66666667 6.1875,6.66666667 C6.56719577,6.66666667 6.875,6.9651435 6.875,7.33333333 C6.875,7.70152317 6.56719577,8 6.1875,8 Z M10.3125,5.33333333 C9.93280423,5.33333333 9.625,5.0348565 9.625,4.66666667 C9.625,4.29847683 9.93280423,4 10.3125,4 C10.6921958,4 11,4.29847683 11,4.66666667 C11,5.0348565 10.6921958,5.33333333 10.3125,5.33333333 Z M10.3125,8 C9.93280423,8 9.625,7.70152317 9.625,7.33333333 C9.625,6.9651435 9.93280423,6.66666667 10.3125,6.66666667 C10.6921958,6.66666667 11,6.9651435 11,7.33333333 C11,7.70152317 10.6921958,8 10.3125,8 Z M2.0625,5.33333333 C1.68280423,5.33333333 1.375,5.0348565 1.375,4.66666667 C1.375,4.29847683 1.68280423,4 2.0625,4 C2.44219577,4 2.75,4.29847683 2.75,4.66666667 C2.75,5.0348565 2.44219577,5.33333333 2.0625,5.33333333 Z M2.0625,8 C1.68280423,8 1.375,7.70152317 1.375,7.33333333 C1.375,6.9651435 1.68280423,6.66666667 2.0625,6.66666667 C2.44219577,6.66666667 2.75,6.9651435 2.75,7.33333333 C2.75,7.70152317 2.44219577,8 2.0625,8 Z" id="stars" fill="#F7F7F7" mask="url(#mask-2)"></path>
                            <g id="stroke" mask="url(#mask-2)" stroke="#000000" opacity="0.200000003">
                                <rect x="0.5" y="0.5" width="21" height="15" rx="1"></rect>
                            </g>
                        </g>
                    </g>
                </g>
            </g>
        </g>
    </g>
</svg>