<?xml version="1.0" encoding="UTF-8"?>
<svg width="24px" height="24px" viewBox="0 0 24 24" version="1.1" xmlns="http://www.w3.org/2000/svg" xmlns:xlink="http://www.w3.org/1999/xlink">
    <!-- Generator: Sketch 45.2 (43514) - http://www.bohemiancoding.com/sketch -->
    <title>atoms/icons/24/iOS</title>
    <desc>Created with Sketch.</desc>
    <defs>
        <path d="M21.6517476,18.1198908 C21.1327508,19.2688839 20.8852523,19.7818808 20.2162563,20.7973747 C19.2847619,22.2148661 17.9722698,23.9818555 16.3447796,23.9968554 C14.8987883,24.0103553 14.5267906,23.056361 12.5648024,23.066861 C10.6028142,23.0773609 10.1918167,24.0133553 8.74582542,23.9998554 C7.11833523,23.9848555 5.87484273,22.3903651 4.94184835,20.9713736 C2.33786404,17.0053975 2.06486569,12.3524256 3.67135601,9.87894046 C4.81284913,8.11945107 6.61433827,7.09195726 8.30932805,7.09195726 C10.0343177,7.09195726 11.1173111,8.03695156 12.5438025,8.03695156 C13.9267942,8.03695156 14.7697891,7.09045727 16.7647771,7.09045727 C18.272268,7.09045727 19.8697584,7.91095232 21.0067515,9.32844378 C17.279274,11.3729315 17.8852703,16.6963994 21.6517476,18.1198908 Z M16.0687813,4.0484756 C15.1912866,5.17346882 13.6822957,6.04496357 12.2228045,5.99996384 C11.9573061,4.54947258 12.6413019,3.05698158 13.469297,2.05048764 C14.3827915,0.941994323 15.945782,0.0914994486 17.282274,0 C17.5087726,1.51499087 16.8877764,2.99848193 16.0687813,4.0484756 Z" id="path-1"></path>
    </defs>
    <g id="Symbols" stroke="none" stroke-width="1" fill="none" fill-rule="evenodd">
        <g id="atoms/icons/24/iOS">
            <mask id="mask-2" fill="white">
                <use xlink:href="#path-1"></use>
            </mask>
            <use id="ico" fill="#444444" fill-rule="nonzero" xlink:href="#path-1"></use>
            <g id="⚙️specs/clr/bw/bw-14" mask="url(#mask-2)" fill="#151922">
                <rect id="clr" x="0" y="0" width="24" height="24"></rect>
            </g>
        </g>
    </g>
</svg>