<?xml version="1.0" encoding="UTF-8"?>
<svg width="24px" height="24px" viewBox="0 0 24 24" version="1.1" xmlns="http://www.w3.org/2000/svg" xmlns:xlink="http://www.w3.org/1999/xlink">
    <!-- Generator: Sketch 45.2 (43514) - http://www.bohemiancoding.com/sketch -->
    <title>atoms/icons/24/macos</title>
    <desc>Created with Sketch.</desc>
    <defs>
        <path d="M12,24 C5.372583,24 0,18.627417 0,12 C0,5.372583 5.372583,0 12,0 C18.627417,0 24,5.372583 24,12 C24,18.627417 18.627417,24 12,24 Z M7.464,7.9 L7.464,10 L8.29,10 L8.29,7.914 C8.29,7.347 8.598,6.969 9.116,6.969 C9.69,6.969 9.914,7.361 9.914,7.893 L9.914,10 L10.747,10 L10.747,7.69 C10.747,6.843 10.334,6.178 9.389,6.178 C8.815,6.178 8.451,6.388 8.087,6.794 C7.877,6.416 7.506,6.178 6.932,6.178 C6.638,6.178 6.176,6.29 5.819,6.766 L5.819,6.262 L5.007,6.262 L5.007,10 L5.84,10 L5.84,7.921 C5.84,7.354 6.148,6.969 6.659,6.969 C7.233,6.969 7.464,7.375 7.464,7.9 Z M14.772,10 L14.772,7.62 C14.772,7.368 14.737,7.151 14.646,6.948 C14.401,6.409 13.876,6.185 13.246,6.185 C12.973,6.185 12.707,6.234 12.49,6.332 C11.972,6.556 11.685,7.032 11.65,7.347 L12.406,7.515 C12.469,7.158 12.77,6.899 13.225,6.899 C13.715,6.899 13.96,7.172 13.96,7.466 C13.96,7.648 13.862,7.781 13.61,7.781 L13.148,7.781 C12.497,7.781 11.594,8.054 11.594,8.922 L11.594,8.964 C11.594,9.608 12.126,10.063 12.854,10.063 C13.204,10.063 13.68,9.944 13.953,9.489 L13.953,10 L14.772,10 Z M13.953,8.488 C13.953,9.048 13.589,9.398 13.022,9.398 C12.672,9.398 12.427,9.195 12.427,8.887 C12.427,8.537 12.833,8.369 13.148,8.369 L13.953,8.369 L13.953,8.488 Z M17.544,10.063 C16.445,10.063 15.598,9.223 15.598,8.124 C15.598,7.06 16.445,6.185 17.558,6.185 C18.482,6.185 19.126,6.759 19.287,7.389 L18.531,7.641 C18.447,7.347 18.174,6.941 17.551,6.941 C16.942,6.941 16.452,7.403 16.452,8.11 C16.452,8.81 16.921,9.307 17.558,9.307 C18.202,9.307 18.433,8.88 18.545,8.593 L19.308,8.838 C19.14,9.412 18.559,10.063 17.544,10.063 Z M5.515,15.49 C5.515,13.438 7.144,11.854 9.142,11.854 C11.14,11.854 12.751,13.402 12.751,15.463 C12.751,17.542 11.104,19.081 9.115,19.081 C7.117,19.081 5.515,17.569 5.515,15.49 Z M6.676,15.463 C6.676,16.894 7.747,18.055 9.133,18.055 C10.51,18.055 11.59,16.894 11.59,15.463 C11.59,14.032 10.51,12.88 9.133,12.88 C7.747,12.88 6.676,14.032 6.676,15.463 Z M15.6085,19.081 C13.9615,19.081 13.0975,18.019 12.9985,17.02 L14.0695,16.732 C14.2225,17.551 14.7805,18.082 15.6265,18.082 C16.3285,18.082 16.9045,17.686 16.9045,17.092 C16.9045,16.516 16.4545,16.192 15.8605,16.066 L14.9965,15.886 C13.8355,15.652 13.2055,14.887 13.2055,13.969 C13.2055,12.808 14.2675,11.854 15.5365,11.854 C17.1295,11.854 17.7865,12.817 17.9305,13.582 L16.9045,13.906 C16.7785,13.402 16.3015,12.844 15.5545,12.844 C14.8705,12.844 14.3395,13.33 14.3395,13.87 C14.3395,14.266 14.6635,14.689 15.2305,14.806 L16.1215,14.977 C17.3815,15.229 18.0475,15.976 18.0475,17.02 C18.0475,18.046 17.1655,19.081 15.6085,19.081 Z" id="path-1"></path>
    </defs>
    <g id="Symbols" stroke="none" stroke-width="1" fill="none" fill-rule="evenodd">
        <g id="atoms/icons/24/macos">
            <mask id="mask-2" fill="white">
                <use xlink:href="#path-1"></use>
            </mask>
            <use id="ico" fill="#D8D8D8" xlink:href="#path-1"></use>
            <g id="⚙️specs/clr/bw/bw-14" mask="url(#mask-2)" fill="#151922">
                <rect id="clr" x="0" y="0" width="24" height="24"></rect>
            </g>
        </g>
    </g>
</svg>