<?xml version="1.0" encoding="UTF-8"?>
<svg width="32px" height="24px" viewBox="0 0 32 24" version="1.1" xmlns="http://www.w3.org/2000/svg" xmlns:xlink="http://www.w3.org/1999/xlink">
    <!-- Generator: Sketch 46.1 (44463) - http://www.bohemiancoding.com/sketch -->
    <title>flags/32x24/ar</title>
    <desc>Created with Sketch.</desc>
    <defs></defs>
    <g stroke="none" stroke-width="1" fill="none" fill-rule="evenodd">
        <g>
            <path d="M1,0 L31,0 C31.5522847,-1.01453063e-16 32,0.44771525 32,1 L32,23 C32,23.5522847 31.5522847,24 31,24 L1,24 C0.44771525,24 6.76353751e-17,23.5522847 0,23 L0,1 C-6.76353751e-17,0.44771525 0.44771525,1.01453063e-16 1,0 Z" fill="#F7F7F7"></path>
            <path d="M0,17 L32,17 L32,23 L32,23 C32,23.5522847 31.5522847,24 31,24 L1,24 L1,24 C0.44771525,24 6.76353751e-17,23.5522847 0,23 L0,17 Z" fill="#75ADE0"></path>
            <path d="M16,16 C13.790861,16 12,14.209139 12,12 C12,9.790861 13.790861,8 16,8 C18.209139,8 20,9.790861 20,12 C20,14.209139 18.209139,16 16,16 Z" fill="#A85904"></path>
            <path d="M16,14 C17.1045695,14 18,13.1045695 18,12 C18,10.8954305 17.1045695,10 16,10 C14.8954305,10 14,10.8954305 14,12 C14,13.1045695 14.8954305,14 16,14 Z" fill="#F6B506" fill-rule="nonzero"></path>
            <path d="M1,0 L31,0 L31,0 C31.5522847,-1.01453063e-16 32,0.44771525 32,1 L32,7 L0,7 L0,1 L0,1 C-6.76353751e-17,0.44771525 0.44771525,1.01453063e-16 1,0 Z" fill="#75ADE0"></path>
            <path d="M1,1 L1,23 L31,23 L31,1 L1,1 Z M1,0 L31,0 C31.5522847,-1.01453063e-16 32,0.44771525 32,1 L32,23 C32,23.5522847 31.5522847,24 31,24 L1,24 C0.44771525,24 6.76353751e-17,23.5522847 0,23 L0,1 C-6.76353751e-17,0.44771525 0.44771525,1.01453063e-16 1,0 Z" fill="#000000" fill-rule="nonzero" opacity="0.200000003"></path>
        </g>
    </g>
</svg>