<?xml version="1.0" encoding="UTF-8"?>
<svg width="24px" height="24px" viewBox="0 0 24 24" version="1.1" xmlns="http://www.w3.org/2000/svg" xmlns:xlink="http://www.w3.org/1999/xlink">
    <!-- Generator: Sketch 46.1 (44463) - http://www.bohemiancoding.com/sketch -->
    <title>flags/32x24/ch</title>
    <desc>Created with Sketch.</desc>
    <defs></defs>
    <g stroke="none" stroke-width="1" fill="none" fill-rule="evenodd">
        <g transform="translate(-4.000000, 0.000000)">
            <path d="M5,0 L27,0 C27.5522847,-1.01453063e-16 28,0.44771525 28,1 L28,23 C28,23.5522847 27.5522847,24 27,24 L5,24 C4.44771525,24 4,23.5522847 4,23 L4,1 C4,0.44771525 4.44771525,1.01453063e-16 5,0 Z" fill="#D52B1E"></path>
            <polygon fill="#FFFFFF" points="18 10 18 6 14 6 14 10 10 10 10 14 14 14 14 18 18 18 18 14 22 14 22 10"></polygon>
            <path d="M5,1 L5,23 L27,23 L27,1 L5,1 Z M5,0 L27,0 C27.5522847,-1.01453063e-16 28,0.44771525 28,1 L28,23 C28,23.5522847 27.5522847,24 27,24 L5,24 C4.44771525,24 4,23.5522847 4,23 L4,1 C4,0.44771525 4.44771525,1.01453063e-16 5,0 Z" fill="#000000" fill-rule="nonzero" opacity="0.200000003"></path>
        </g>
    </g>
</svg>