<?xml version="1.0" encoding="UTF-8"?>
<svg width="32px" height="24px" viewBox="0 0 32 24" version="1.1" xmlns="http://www.w3.org/2000/svg" xmlns:xlink="http://www.w3.org/1999/xlink">
    <!-- Generator: Sketch 46.1 (44463) - http://www.bohemiancoding.com/sketch -->
    <title>flags/32x24/cy</title>
    <desc>Created with Sketch.</desc>
    <defs></defs>
    <g stroke="none" stroke-width="1" fill="none" fill-rule="evenodd">
        <g>
            <path d="M1,0 L31,0 C31.5522847,-1.01453063e-16 32,0.44771525 32,1 L32,23 C32,23.5522847 31.5522847,24 31,24 L1,24 C0.44771525,24 6.76353751e-17,23.5522847 0,23 L0,1 C-6.76353751e-17,0.44771525 0.44771525,1.01453063e-16 1,0 Z" fill="#F7F7F7"></path>
            <path d="M19.2371708,18.7115125 C18.8442133,18.8424983 18.4194734,18.6301283 18.2884875,18.2371708 C18.1575017,17.8442133 18.3698717,17.4194734 18.7628292,17.2884875 C18.8761679,17.250708 19.0902165,17.1691656 19.3703962,17.0446413 C19.8403014,16.8357946 20.3099265,16.5853278 20.7439749,16.2959623 C21.4846695,15.8021658 22.0361137,15.2507217 22.3291796,14.6645898 C22.5144215,14.2941059 22.9649263,14.1439377 23.3354102,14.3291796 C23.7058941,14.5144215 23.8560623,14.9649263 23.6708204,15.3354102 C23.2438863,16.1892783 22.5153305,16.9178342 21.5760251,17.5440377 C21.0650735,17.8846722 20.5221986,18.1742054 19.9796038,18.4153587 C19.6522835,18.5608344 19.3938321,18.659292 19.2371708,18.7115125 Z M12.76279,18.7115125 C12.6061287,18.659292 12.3476773,18.5608344 12.020357,18.4153587 C11.4777622,18.1742054 10.9348874,17.8846722 10.4239357,17.5440377 C9.48463031,16.9178342 8.75607449,16.1892783 8.32914042,15.3354102 C8.14389849,14.9649263 8.29406675,14.5144215 8.66455062,14.3291796 C9.03503449,14.1439377 9.48553927,14.2941059 9.67078121,14.6645898 C9.96384715,15.2507217 10.5152913,15.8021658 11.255986,16.2959623 C11.6900343,16.5853278 12.1596594,16.8357946 12.6295647,17.0446413 C12.9097443,17.1691656 13.1237929,17.250708 13.2371316,17.2884875 C13.6300891,17.4194734 13.8424591,17.8442133 13.7114733,18.2371708 C13.5804875,18.6301283 13.1557475,18.8424983 12.76279,18.7115125 Z M16,19 C15.4477153,19 15,18.5522847 15,18 C15,17.4477153 15.4477153,17 16,17 C16.5522847,17 17,17.4477153 17,18 C17,18.5522847 16.5522847,19 16,19 Z" fill="#445128" fill-rule="nonzero"></path>
            <path d="M24.3351953,4 C24.7023568,4 24.8688998,4.2591263 24.6997277,4.59350339 L24.1574151,5.66541187 C23.9915793,5.99319474 23.5949424,6.38847841 23.2565983,6.55566696 L22.1719731,7.09162119 C21.8403015,7.25551263 21.361811,7.59553283 21.0933762,7.86082034 L20.9066238,8.04538307 C20.6426028,8.30630859 20.6907719,8.64739367 21.0291159,8.81458221 L22.1137412,9.35053645 C22.4454128,9.51442789 22.4520852,9.7768513 22.1137412,9.94403984 L21.0291159,10.4799941 C20.6974444,10.6438855 20.1282992,10.7767458 19.7637667,10.7767458 L19.950519,10.7767458 C19.5833575,10.7767458 19.0760967,10.9839057 18.8076619,11.2491932 L18.6209096,11.433756 C18.3568885,11.6946815 17.8806567,12.0357666 17.5423126,12.2029551 L16.4576874,12.7389093 C16.1260158,12.9028008 15.5568706,13.035661 15.1923381,13.035661 L15.3790904,13.035661 C15.0119289,13.035661 14.5046681,13.242821 14.2362333,13.5081085 L14.049481,13.6926712 C13.7854599,13.9535967 13.2791105,14.0688217 12.9425757,13.9579587 L10.77171,13.242821 C10.4244042,13.1284097 10.0117569,12.7765347 9.84258488,12.4421576 L9.30027226,11.3702492 C9.13443647,11.0424663 9,10.4799941 9,10.1066818 L9,10.3173521 C9,9.94728601 9.26220049,9.517725 9.60054452,9.35053645 L10.6851698,8.81458221 C11.0168413,8.65069078 11.5859865,8.51783052 11.950519,8.51783052 L11.7637667,8.51783052 C12.1309282,8.51783052 12.5596717,8.25870422 12.7288437,7.92432713 L13.2711563,6.85241865 C13.4369921,6.52463578 13.8637466,6.25891526 14.2324916,6.25891526 L19.7675084,6.25891526 C20.1326034,6.25891526 20.6907719,6.12935211 21.0291159,5.96216356 L22.1137412,5.42620933 C22.4454128,5.26231789 22.9239033,4.92229769 23.1923381,4.65701018 L23.3790904,4.47244745 C23.6431115,4.21152193 24.1574151,4 24.5219476,4 L24.3351953,4 Z" fill="#E7832C"></path>
            <path d="M1,1 L1,23 L31,23 L31,1 L1,1 Z M1,0 L31,0 C31.5522847,-1.01453063e-16 32,0.44771525 32,1 L32,23 C32,23.5522847 31.5522847,24 31,24 L1,24 C0.44771525,24 6.76353751e-17,23.5522847 0,23 L0,1 C-6.76353751e-17,0.44771525 0.44771525,1.01453063e-16 1,0 Z" fill="#000000" fill-rule="nonzero" opacity="0.200000003"></path>
        </g>
    </g>
</svg>