<?xml version="1.0" encoding="UTF-8"?>
<svg width="32px" height="24px" viewBox="0 0 32 24" version="1.1" xmlns="http://www.w3.org/2000/svg" xmlns:xlink="http://www.w3.org/1999/xlink">
    <!-- Generator: Sketch 46.1 (44463) - http://www.bohemiancoding.com/sketch -->
    <title>flags/32x24/es</title>
    <desc>Created with Sketch.</desc>
    <defs></defs>
    <g stroke="none" stroke-width="1" fill="none" fill-rule="evenodd">
        <g>
            <path d="M1,0 L31,0 C31.5522847,-1.01453063e-16 32,0.44771525 32,1 L32,23 C32,23.5522847 31.5522847,24 31,24 L1,24 C0.44771525,24 6.76353751e-17,23.5522847 0,23 L0,1 C-6.76353751e-17,0.44771525 0.44771525,1.01453063e-16 1,0 Z" fill="#FFC400"></path>
            <path d="M0,17 L32,17 L32,23 L32,23 C32,23.5522847 31.5522847,24 31,24 L1,24 L1,24 C0.44771525,24 6.76353751e-17,23.5522847 0,23 L0,17 Z" fill="#C60B1E"></path>
            <path d="M1,0 L31,0 L31,0 C31.5522847,-1.01453063e-16 32,0.44771525 32,1 L32,7 L0,7 L0,1 L0,1 C-6.76353751e-17,0.44771525 0.44771525,1.01453063e-16 1,0 Z" fill="#C60B1E"></path>
            <path d="M9,10 L9,8 L13,8 L13,10 L14,10 L14,14 L11,16 L8,14 L8,10 L9,10 Z M16,10 C16.5522847,10 17,10.4477153 17,11 L17,14 C17,14.5522847 16.5522847,15 16,15 C15.4477153,15 15,14.5522847 15,14 L15,11 C15,10.4477153 15.4477153,10 16,10 Z M6,10 C6.55228475,10 7,10.4477153 7,11 L7,14 C7,14.5522847 6.55228475,15 6,15 C5.44771525,15 5,14.5522847 5,14 L5,11 C5,10.4477153 5.44771525,10 6,10 Z M10,11 L10,13 L12,13 L12,11 L10,11 Z" fill="#91443A"></path>
            <path d="M1,1 L1,23 L31,23 L31,1 L1,1 Z M1,0 L31,0 C31.5522847,-1.01453063e-16 32,0.44771525 32,1 L32,23 C32,23.5522847 31.5522847,24 31,24 L1,24 C0.44771525,24 6.76353751e-17,23.5522847 0,23 L0,1 C-6.76353751e-17,0.44771525 0.44771525,1.01453063e-16 1,0 Z" fill="#000000" fill-rule="nonzero" opacity="0.200000003"></path>
        </g>
    </g>
</svg>