<?xml version="1.0" encoding="UTF-8"?>
<svg width="32px" height="24px" viewBox="0 0 32 24" version="1.1" xmlns="http://www.w3.org/2000/svg" xmlns:xlink="http://www.w3.org/1999/xlink">
    <!-- Generator: Sketch 46.1 (44463) - http://www.bohemiancoding.com/sketch -->
    <title>flags/32x24/gb</title>
    <desc>Created with Sketch.</desc>
    <defs></defs>
    <g stroke="none" stroke-width="1" fill="none" fill-rule="evenodd">
        <g>
            <path d="M1,0 L31,0 C31.5522847,-1.01453063e-16 32,0.44771525 32,1 L32,23 C32,23.5522847 31.5522847,24 31,24 L1,24 C0.44771525,24 6.76353751e-17,23.5522847 0,23 L0,1 C-6.76353751e-17,0.44771525 0.44771525,1.01453063e-16 1,0 Z" fill="#273C83"></path>
            <path d="M2.30201914,3.88578059e-16 L1,3.88578059e-16 C0.44771525,4.90031121e-16 -6.76353751e-17,0.44771525 0,1 L0,4.46686776 L11.9098039,12.2011848 L2.22044605e-16,19.9355019 L0,23 C6.76353751e-17,23.5522847 0.44771525,24 1,24 L2.92161403,24 L16.5,15.182093 L30.078386,24 L31,24 C31.5522847,24 32,23.5522847 32,23 L32,19.2860943 L21.0901961,12.2011848 L32,5.11627535 L32,1 C32,0.44771525 31.5522847,2.87124996e-16 31,3.88578059e-16 L30.6979809,3.88578059e-16 L16.5,9.22027658 L2.30201914,3.88578059e-16 Z" fill="#F7F7F7"></path>
            <path d="M32,1.26770762 L32,3.65243421 L18.3360785,12.5258886 L32,21.399343 L32,23 C32,23.2415286 31.9143726,23.4630578 31.7718186,23.6358869 L16.5,13.7182519 L0.72601118,23.962 C0.306928483,23.8428698 5.6000455e-17,23.4572784 0,23 L0,22.0487506 L14.6639215,12.5258886 L1.33226763e-15,3.00302662 L0,1 C-1.47380228e-17,0.879654911 0.0212584959,0.764275009 0.0602251096,0.657410673 L16.5,11.3335253 L32,1.26770762 Z" fill="#DC1E35"></path>
            <polygon fill="#F7F7F7" points="20 8 20 0 12 0 12 8 0 8 0 16 12 16 12 24 20 24 20 16 32 16 32 8"></polygon>
            <polygon fill="#DC1E35" points="18 10 32 10 32 14 18 14 18 24 14 24 14 14 0 14 0 10 14 10 14 0 18 0"></polygon>
            <path d="M1,1 L1,23 L31,23 L31,1 L1,1 Z M1,0 L31,0 C31.5522847,-1.01453063e-16 32,0.44771525 32,1 L32,23 C32,23.5522847 31.5522847,24 31,24 L1,24 C0.44771525,24 6.76353751e-17,23.5522847 0,23 L0,1 C-6.76353751e-17,0.44771525 0.44771525,1.01453063e-16 1,0 Z" fill="#000000" fill-rule="nonzero" opacity="0.200000003"></path>
        </g>
    </g>
</svg>