<?xml version="1.0" encoding="UTF-8"?>
<svg width="32px" height="24px" viewBox="0 0 32 24" version="1.1" xmlns="http://www.w3.org/2000/svg" xmlns:xlink="http://www.w3.org/1999/xlink">
    <!-- Generator: Sketch 46.1 (44463) - http://www.bohemiancoding.com/sketch -->
    <title>flags/32x24/hk</title>
    <desc>Created with Sketch.</desc>
    <defs></defs>
    <g stroke="none" stroke-width="1" fill="none" fill-rule="evenodd">
        <g>
            <path d="M1,0 L31,0 C31.5522847,-1.01453063e-16 32,0.44771525 32,1 L32,23 C32,23.5522847 31.5522847,24 31,24 L1,24 C0.44771525,24 6.76353751e-17,23.5522847 0,23 L0,1 C-6.76353751e-17,0.44771525 0.44771525,1.01453063e-16 1,0 Z" fill="#DE2910"></path>
            <path d="M18.1628174,11.1656366 C16.7298741,10.2677728 16.3670898,11.8991938 16.3670898,11.1656366 C16.3670898,9.67800714 17.9750391,8.4720452 19.958545,8.4720452 C21.9420509,8.4720452 23.5500002,9.67800714 23.5500002,11.1656366 C21.8461195,11.1656366 21.6759091,12.0635004 20.8564088,12.0635004 C19.8509791,12.0635004 19.5957607,12.0635004 18.1628174,11.1656366 Z M20.5,11 C20.7761424,11 21,10.7761424 21,10.5 C21,10.2238576 20.7761424,10 20.5,10 C20.2238576,10 20,10.2238576 20,10.5 C20,10.7761424 20.2238576,11 20.5,11 Z M17.1555108,14.3478028 C17.5666261,12.7075376 15.9029461,12.8666461 16.6006004,12.6399644 C18.0154201,12.1802616 19.6592417,13.3368495 20.2721787,15.2232758 C20.8851158,17.109702 20.2350615,19.0116154 18.8202418,19.4713181 C18.2937137,17.8508313 17.3871966,17.9664067 17.1339571,17.1870157 C16.8232622,16.2307952 16.7443954,15.9880681 17.1555108,14.3478028 Z M18.1387276,16.7044148 C18.2153447,16.9402181 18.4686115,17.0692639 18.7044148,16.9926468 C18.9402181,16.9160297 19.0692639,16.6627629 18.9926468,16.4269596 C18.9160297,16.1911563 18.6627629,16.0621105 18.4269596,16.1387276 C18.1911563,16.2153447 18.0621105,16.4686115 18.1387276,16.7044148 Z M13.8178159,14.3731407 C15.5048425,14.2572649 14.839416,12.7241783 15.2705901,13.3176385 C16.1449967,14.5211561 15.5529851,16.4419286 13.9482951,17.6078041 C12.3436051,18.7736797 10.3339001,18.7431648 9.4594935,17.5396473 C10.8379619,16.5381314 10.447914,15.7116971 11.1109036,15.230007 C11.9243133,14.6390302 12.1307894,14.4890166 13.8178159,14.3731407 Z M12.3631935,16.2638755 C12.1626073,16.40961 12.1181411,16.6903584 12.2638755,16.8909446 C12.40961,17.0915309 12.6903584,17.1359971 12.8909446,16.9902626 C13.0915309,16.8445282 13.1359971,16.5637798 12.9902626,16.3631935 C12.8445282,16.1626073 12.5637798,16.1181411 12.3631935,16.2638755 Z M12.7623137,11.2066342 C13.3938381,12.7752841 14.646262,11.6686761 14.2150879,12.2621364 C13.3406812,13.4656539 11.3309763,13.4961687 9.72628629,12.3302932 C8.12159628,11.1644176 7.52958465,9.24364507 8.4039913,8.04012757 C9.78245973,9.04164351 10.447914,8.41530362 11.1109036,8.89699379 C11.9243133,9.48797053 12.1307894,9.63798416 12.7623137,11.2066342 Z M10.8909446,10.2638755 C10.6903584,10.1181411 10.40961,10.1626073 10.2638755,10.3631935 C10.1181411,10.5637798 10.1626073,10.8445282 10.3631935,10.9902626 C10.5637798,11.1359971 10.8445282,11.0915309 10.9902626,10.8909446 C11.1359971,10.6903584 11.0915309,10.40961 10.8909446,10.2638755 Z M15.4476723,9.22428757 C14.1509493,10.3096424 15.5904163,11.1588076 14.892762,10.932126 C13.4779423,10.4724232 12.827888,8.57050986 13.440825,6.68408362 C14.0537621,4.79765739 15.6975837,3.6410695 17.1124034,4.10077228 C16.5858753,5.72125911 17.3871966,6.16059402 17.1339571,6.9399851 C16.8232622,7.89620554 16.7443954,8.1389327 15.4476723,9.22428757 Z M15.9926468,6.70441478 C16.0692639,6.4686115 15.9402181,6.21534472 15.7044148,6.13872759 C15.4686115,6.06211046 15.2153447,6.19115633 15.1387276,6.42695961 C15.0621105,6.66276289 15.1911563,6.91602967 15.4269596,6.9926468 C15.6627629,7.06926393 15.9160297,6.94021806 15.9926468,6.70441478 Z" fill="#FFFFFF"></path>
            <path d="M1,1 L1,23 L31,23 L31,1 L1,1 Z M1,0 L31,0 C31.5522847,-1.01453063e-16 32,0.44771525 32,1 L32,23 C32,23.5522847 31.5522847,24 31,24 L1,24 C0.44771525,24 6.76353751e-17,23.5522847 0,23 L0,1 C-6.76353751e-17,0.44771525 0.44771525,1.01453063e-16 1,0 Z" fill="#000000" fill-rule="nonzero" opacity="0.200000003"></path>
        </g>
    </g>
</svg>