<?xml version="1.0" encoding="UTF-8"?>
<svg width="32px" height="24px" viewBox="0 0 32 24" version="1.1" xmlns="http://www.w3.org/2000/svg" xmlns:xlink="http://www.w3.org/1999/xlink">
    <!-- Generator: Sketch 46.1 (44463) - http://www.bohemiancoding.com/sketch -->
    <title>flags/32x24/hr</title>
    <desc>Created with Sketch.</desc>
    <defs></defs>
    <g stroke="none" stroke-width="1" fill="none" fill-rule="evenodd">
        <g>
            <path d="M1,0 L31,0 C31.5522847,-1.01453063e-16 32,0.44771525 32,1 L32,23 C32,23.5522847 31.5522847,24 31,24 L1,24 C0.44771525,24 6.76353751e-17,23.5522847 0,23 L0,1 C-6.76353751e-17,0.44771525 0.44771525,1.01453063e-16 1,0 Z" fill="#F7F7F7"></path>
            <path d="M0,16 L32,16 L32,23 L32,23 C32,23.5522847 31.5522847,24 31,24 L1,24 L1,24 C0.44771525,24 6.76353751e-17,23.5522847 0,23 L0,16 Z" fill="#171796"></path>
            <path d="M1,0 L31,0 L31,0 C31.5522847,-1.01453063e-16 32,0.44771525 32,1 L32,8 L0,8 L0,1 L0,1 C-6.76353751e-17,0.44771525 0.44771525,1.01453063e-16 1,0 Z" fill="#FF0000"></path>
            <g transform="translate(10.000000, 3.000000)">
                <polygon fill="#FFFFFF" fill-rule="nonzero" points="0 4 12 4 12 13 6 17 0 13"></polygon>
                <polygon fill="#EE1C25" points="1 6 3 6 3 8 1 8"></polygon>
                <polygon fill="#EE1C25" points="1 10 3 10 3 12 1 12"></polygon>
                <polygon fill="#EE1C25" points="5 6 7 6 7 8 5 8"></polygon>
                <polygon fill="#EE1C25" points="5 10 7 10 7 12 5 12"></polygon>
                <polygon fill="#EE1C25" points="9 6 11 6 11 8 9 8"></polygon>
                <polygon fill="#EE1C25" points="9 10 11 10 11 12 9 12"></polygon>
                <polygon fill="#EE1C25" points="3 8 5 8 5 10 3 10"></polygon>
                <polygon fill="#EE1C25" points="3 12 5 12 5 14 3 14"></polygon>
                <polygon fill="#EE1C25" points="7 8 9 8 9 10 7 10"></polygon>
                <polygon fill="#EE1C25" points="7 12 9 12 9 14 7 14"></polygon>
                <polygon fill="#121278" points="6 0 8 3 4 3"></polygon>
                <polygon fill="#171796" points="3 0 5 3 1 3"></polygon>
                <polygon fill="#171796" points="9 0 11 3 7 3"></polygon>
            </g>
            <path d="M1,1 L1,23 L31,23 L31,1 L1,1 Z M1,0 L31,0 C31.5522847,-1.01453063e-16 32,0.44771525 32,1 L32,23 C32,23.5522847 31.5522847,24 31,24 L1,24 C0.44771525,24 6.76353751e-17,23.5522847 0,23 L0,1 C-6.76353751e-17,0.44771525 0.44771525,1.01453063e-16 1,0 Z" fill="#000000" fill-rule="nonzero" opacity="0.200000003"></path>
        </g>
    </g>
</svg>