<?xml version="1.0" encoding="UTF-8"?>
<svg width="32px" height="24px" viewBox="0 0 32 24" version="1.1" xmlns="http://www.w3.org/2000/svg" xmlns:xlink="http://www.w3.org/1999/xlink">
    <!-- Generator: Sketch 46.1 (44463) - http://www.bohemiancoding.com/sketch -->
    <title>flags/32x24/il</title>
    <desc>Created with Sketch.</desc>
    <defs>
        <polygon id="path-1" points="17.6666667 8.96875 16 6 14.3333333 8.96875 11 8.96875 12.6666667 11.9375 11 14.90625 14.3333333 14.90625 16 17.875 17.6666667 14.90625 21 14.90625 19.3333333 11.9375 21 8.96875 17.6666667 8.96875"></polygon>
    </defs>
    <g stroke="none" stroke-width="1" fill="none" fill-rule="evenodd">
        <g>
            <path d="M1,0 L31,0 C31.5522847,-1.01453063e-16 32,0.44771525 32,1 L32,23 C32,23.5522847 31.5522847,24 31,24 L1,24 C0.44771525,24 6.76353751e-17,23.5522847 0,23 L0,1 C-6.76353751e-17,0.44771525 0.44771525,1.01453063e-16 1,0 Z" fill="#F7F7F7"></path>
            <polygon fill="#0D5EAF" points="0 3 32 3 32 7 0 7"></polygon>
            <polygon fill="#0D5EAF" points="0 17 32 17 32 21 0 21"></polygon>
            <g>
                <use fill="#0D5EAF" fill-rule="evenodd" xlink:href="#path-1"></use>
                <path stroke="#0D5EAF" stroke-width="2" d="M16,8.04275587 L14.9187401,9.96875 L12.7082138,9.96875 L13.813477,11.9375 L12.7082138,13.90625 L14.9187401,13.90625 L16,15.8322441 L17.0812599,13.90625 L19.2917862,13.90625 L18.186523,11.9375 L19.2917862,9.96875 L17.0812599,9.96875 L16,8.04275587 Z"></path>
            </g>
            <circle fill="#F7F7F7" cx="16" cy="12" r="2"></circle>
            <path d="M1,1 L1,23 L31,23 L31,1 L1,1 Z M1,0 L31,0 C31.5522847,-1.01453063e-16 32,0.44771525 32,1 L32,23 C32,23.5522847 31.5522847,24 31,24 L1,24 C0.44771525,24 6.76353751e-17,23.5522847 0,23 L0,1 C-6.76353751e-17,0.44771525 0.44771525,1.01453063e-16 1,0 Z" fill="#000000" fill-rule="nonzero" opacity="0.200000003"></path>
        </g>
    </g>
</svg>