<?xml version="1.0" encoding="UTF-8"?>
<svg width="32px" height="24px" viewBox="0 0 32 24" version="1.1" xmlns="http://www.w3.org/2000/svg" xmlns:xlink="http://www.w3.org/1999/xlink">
    <!-- Generator: Sketch 46.1 (44463) - http://www.bohemiancoding.com/sketch -->
    <title>flags/32x24/kr</title>
    <desc>Created with Sketch.</desc>
    <defs></defs>
    <g stroke="none" stroke-width="1" fill="none" fill-rule="evenodd">
        <g>
            <path d="M1,0 L31,0 C31.5522847,-1.01453063e-16 32,0.44771525 32,1 L32,23 C32,23.5522847 31.5522847,24 31,24 L1,24 C0.44771525,24 6.76353751e-17,23.5522847 0,23 L0,1 C-6.76353751e-17,0.44771525 0.44771525,1.01453063e-16 1,0 Z" fill="#F7F7F7"></path>
            <path d="M11,12 C11,14.7614237 13.2385763,17 16,17 C18.7614237,17 21,14.7614237 21,12 L11,12 Z" fill="#0066B3"></path>
            <path d="M11,12 C11,9.23857625 13.2385763,7 16,7 C18.7614237,7 21,9.23857625 21,12 L11,12 Z" fill="#ED1C24"></path>
            <path d="M21,6.41718093 L22.4171809,5 L25.962613,8.54543207 L24.5454321,9.962613 L21,6.41718093 Z M10.962613,6.41718093 L7.41718093,9.962613 L6,8.54543207 L9.54543207,5 L10.962613,6.41718093 Z M21,17.5454321 L24.5454321,14 L25.962613,15.4171809 L22.4171809,18.962613 L21,17.5454321 Z M10.962613,17.5454321 L9.54543207,18.962613 L6,15.4171809 L7.41718093,14 L10.962613,17.5454321 Z M23,4.41718093 L24.4171809,3 L27.962613,6.54543207 L26.5454321,7.962613 L23,4.41718093 Z M8.962613,4.41718093 L5.41718093,7.962613 L4,6.54543207 L7.54543207,3 L8.962613,4.41718093 Z M23,19.5454321 L26.5454321,16 L27.962613,17.4171809 L24.4171809,20.962613 L23,19.5454321 Z M8.962613,19.5454321 L7.54543207,20.962613 L4,17.4171809 L5.41718093,16 L8.962613,19.5454321 Z" fill="#333333"></path>
            <path d="M1,1 L1,23 L31,23 L31,1 L1,1 Z M1,0 L31,0 C31.5522847,-1.01453063e-16 32,0.44771525 32,1 L32,23 C32,23.5522847 31.5522847,24 31,24 L1,24 C0.44771525,24 6.76353751e-17,23.5522847 0,23 L0,1 C-6.76353751e-17,0.44771525 0.44771525,1.01453063e-16 1,0 Z" fill="#000000" fill-rule="nonzero" opacity="0.200000003"></path>
        </g>
    </g>
</svg>