<?xml version="1.0" encoding="UTF-8"?>
<svg width="32px" height="24px" viewBox="0 0 32 24" version="1.1" xmlns="http://www.w3.org/2000/svg" xmlns:xlink="http://www.w3.org/1999/xlink">
    <!-- Generator: Sketch 46.1 (44463) - http://www.bohemiancoding.com/sketch -->
    <title>flags/32x24/mx</title>
    <desc>Created with Sketch.</desc>
    <defs></defs>
    <g stroke="none" stroke-width="1" fill="none" fill-rule="evenodd">
        <g>
            <path d="M1,0 L31,0 C31.5522847,-1.01453063e-16 32,0.44771525 32,1 L32,23 C32,23.5522847 31.5522847,24 31,24 L1,24 C0.44771525,24 6.76353751e-17,23.5522847 0,23 L0,1 C-6.76353751e-17,0.44771525 0.44771525,1.01453063e-16 1,0 Z" fill="#F7F7F7"></path>
            <path d="M23,0 L31,0 L31,0 C31.5522847,-1.01453063e-16 32,0.44771525 32,1 L32,23 L32,23 C32,23.5522847 31.5522847,24 31,24 L23,24 L23,0 Z" fill="#CE1126"></path>
            <path d="M1,0 L9,0 L9,24 L1,24 L1,24 C0.44771525,24 6.76353751e-17,23.5522847 0,23 L0,1 L0,1 C-6.76353751e-17,0.44771525 0.44771525,1.01453063e-16 1,0 Z" fill="#006847"></path>
            <path d="M18.5061525,16.7570715 C18.2019345,16.8673716 17.8731114,16.6885399 17.7717054,16.3576398 C17.6702994,16.0267396 17.834711,15.6690762 18.1389289,15.5587762 C18.2266729,15.5269629 18.3923841,15.4582981 18.6092922,15.3534391 C18.9730812,15.1775742 19.3366533,14.9666622 19.6726828,14.7229944 C20.2461102,14.3071802 20.6730246,13.8428222 20.8999089,13.3492545 C21.0433186,13.0372789 21.3920883,12.9108258 21.6789077,13.0668136 C21.9657271,13.2228014 22.0819836,13.6021607 21.9385739,13.9141364 C21.6080522,14.6331583 21.0440223,15.2466578 20.3168354,15.7739689 C19.9212693,16.0608091 19.5009891,16.3046181 19.0809257,16.5076875 C18.8275224,16.6301891 18.6274358,16.713098 18.5061525,16.7570715 Z M13.4938475,16.7570715 C13.3725642,16.713098 13.1724776,16.6301891 12.9190743,16.5076875 C12.4990109,16.3046181 12.0787307,16.0608091 11.6831646,15.7739689 C10.9559777,15.2466578 10.3919478,14.6331583 10.0614261,13.9141364 C9.91801637,13.6021607 10.0342729,13.2228014 10.3210923,13.0668136 C10.6079117,12.9108258 10.9566814,13.0372789 11.1000911,13.3492545 C11.3269754,13.8428222 11.7538898,14.3071802 12.3273172,14.7229944 C12.6633467,14.9666622 13.0269188,15.1775742 13.3907078,15.3534391 C13.6076159,15.4582981 13.7733271,15.5269629 13.8610711,15.5587762 C14.165289,15.6690762 14.3297006,16.0267396 14.2282946,16.3576398 C14.1268886,16.6885399 13.7980655,16.8673716 13.4938475,16.7570715 Z M16,17 C15.4477153,17 15,16.5522847 15,16 C15,15.4477153 15.4477153,15 16,15 C16.5522847,15 17,15.4477153 17,16 C17,16.5522847 16.5522847,17 16,17 Z" fill="#445128" fill-rule="nonzero"></path>
            <path d="M1,1 L1,23 L31,23 L31,1 L1,1 Z M1,0 L31,0 C31.5522847,-1.01453063e-16 32,0.44771525 32,1 L32,23 C32,23.5522847 31.5522847,24 31,24 L1,24 C0.44771525,24 6.76353751e-17,23.5522847 0,23 L0,1 C-6.76353751e-17,0.44771525 0.44771525,1.01453063e-16 1,0 Z" fill="#000000" fill-rule="nonzero" opacity="0.200000003"></path>
            <circle fill="#9A5111" cx="16" cy="11" r="3"></circle>
        </g>
    </g>
</svg>