<?xml version="1.0" encoding="UTF-8"?>
<svg width="32px" height="24px" viewBox="0 0 32 24" version="1.1" xmlns="http://www.w3.org/2000/svg" xmlns:xlink="http://www.w3.org/1999/xlink">
    <!-- Generator: Sketch 46.1 (44463) - http://www.bohemiancoding.com/sketch -->
    <title>flags/32x24/my</title>
    <desc>Created with Sketch.</desc>
    <defs></defs>
    <g stroke="none" stroke-width="1" fill="none" fill-rule="evenodd">
        <g>
            <path d="M1,0 L31,0 C31.5522847,-1.01453063e-16 32,0.44771525 32,1 L32,23 C32,23.5522847 31.5522847,24 31,24 L1,24 C0.44771525,24 6.76353751e-17,23.5522847 0,23 L0,1 C-6.76353751e-17,0.44771525 0.44771525,1.01453063e-16 1,0 Z" fill="#FFFFFF"></path>
            <path d="M0,3 L32,3 L32,5 L0,5 L0,3 Z M0,7 L32,7 L32,9 L0,9 L0,7 Z M0,11 L32,11 L32,13 L0,13 L0,11 Z M0,15 L32,15 L32,17 L0,17 L0,15 Z M0,19 L32,19 L32,21 L0,21 L0,19 Z" fill="#CC0001"></path>
            <path d="M1,0 L16,0 L16,13 L0,13 L0,1 L0,1 C-6.76353751e-17,0.44771525 0.44771525,1.01453063e-16 1,0 Z" fill="#010066"></path>
            <circle fill="#FFCC00" cx="11" cy="6" r="2"></circle>
            <path d="M10.2737042,3.5690127 C9.52986977,2.61414985 8.36915611,2 7.06500006,2 C4.81996252,2 3,3.81996252 3,6.06500006 C3,8.3100376 4.81996252,10.1300001 7.06500006,10.1300001 C8.36915611,10.1300001 9.52986977,9.51585026 10.2737042,8.56098741 C9.69970698,8.97817464 8.97802888,9.22666677 8.19416674,9.22666677 C6.32330212,9.22666677 4.80666669,7.81114037 4.80666669,6.06500006 C4.80666669,4.31885975 6.32330212,2.90333335 8.19416674,2.90333335 C8.97802888,2.90333335 9.69970698,3.15182547 10.2737042,3.5690127 Z" fill="#FFCC00"></path>
            <path d="M1,1 L1,23 L31,23 L31,1 L1,1 Z M1,0 L31,0 C31.5522847,-1.01453063e-16 32,0.44771525 32,1 L32,23 C32,23.5522847 31.5522847,24 31,24 L1,24 C0.44771525,24 6.76353751e-17,23.5522847 0,23 L0,1 C-6.76353751e-17,0.44771525 0.44771525,1.01453063e-16 1,0 Z" fill="#000000" fill-rule="nonzero" opacity="0.200000003"></path>
        </g>
    </g>
</svg>