<?xml version="1.0" encoding="UTF-8"?>
<svg width="32px" height="24px" viewBox="0 0 32 24" version="1.1" xmlns="http://www.w3.org/2000/svg" xmlns:xlink="http://www.w3.org/1999/xlink">
    <!-- Generator: Sketch 46.1 (44463) - http://www.bohemiancoding.com/sketch -->
    <title>flags/32x24/nz</title>
    <desc>Created with Sketch.</desc>
    <defs></defs>
    <g stroke="none" stroke-width="1" fill="none" fill-rule="evenodd">
        <g>
            <path d="M1,0 L31,0 C31.5522847,-1.01453063e-16 32,0.44771525 32,1 L32,23 C32,23.5522847 31.5522847,24 31,24 L1,24 C0.44771525,24 6.76353751e-17,23.5522847 0,23 L0,1 C-6.76353751e-17,0.44771525 0.44771525,1.01453063e-16 1,0 Z" fill="#273C83"></path>
            <path d="M23.5,7 C22.6715729,7 22,6.32842712 22,5.5 C22,4.67157288 22.6715729,4 23.5,4 C24.3284271,4 25,4.67157288 25,5.5 C25,6.32842712 24.3284271,7 23.5,7 Z M20.5,12 C19.6715729,12 19,11.3284271 19,10.5 C19,9.67157288 19.6715729,9 20.5,9 C21.3284271,9 22,9.67157288 22,10.5 C22,11.3284271 21.3284271,12 20.5,12 Z M23.5,20 C22.6715729,20 22,19.3284271 22,18.5 C22,17.6715729 22.6715729,17 23.5,17 C24.3284271,17 25,17.6715729 25,18.5 C25,19.3284271 24.3284271,20 23.5,20 Z M27,11 C26.4477153,11 26,10.5522847 26,10 C26,9.44771525 26.4477153,9 27,9 C27.5522847,9 28,9.44771525 28,10 C28,10.5522847 27.5522847,11 27,11 Z" fill="#EF2800"></path>
            <path d="M1.07550478,0 L1,0 C0.44771525,1.01453063e-16 -6.76353751e-17,0.44771525 0,1 L0,1.61671694 L1.66533454e-16,2.23343388 L5.95490193,6.10059241 L0,9.96775093 L0,12 L1.46080701,12 L8.25,7.59104652 L15.039193,12 L16,12 L16,9.64304714 L10.5450981,6.10059241 L16,2.55813768 L16,0 L15.3489904,9.43689571e-16 L8.25,4.61013829 L1.15100957,0 L1.07550478,0 Z" fill="#F7F7F7"></path>
            <path d="M0,1.25075665 L0,1 C-2.61306689e-17,0.786626896 0.0668274879,0.588862188 0.180694163,0.426494176 L8,5.50441076 L16,0.309150015 L16,1.50151331 L8.91803923,6.10059241 L16,10.6996715 L16,11.8920348 L8,6.69677405 L8.32667268e-16,11.8920348 L1.27675648e-15,10.6996715 L7.08196077,6.10059241 L0,1.50151331 L2.68504729e-16,1.25075665 Z" fill="#DC1E35"></path>
            <polygon fill="#F7F7F7" points="10 4 16 4 16 8 10 8 10 12 6 12 6 8 0 8 0 4 6 4 6 0 10 0"></polygon>
            <polygon fill="#DC1E35" points="9 5 9 0 7 0 7 5 0 5 0 7 7 7 7 12 9 12 9 7 16 7 16 5"></polygon>
            <path d="M1,1 L1,23 L31,23 L31,1 L1,1 Z M1,0 L31,0 C31.5522847,-1.01453063e-16 32,0.44771525 32,1 L32,23 C32,23.5522847 31.5522847,24 31,24 L1,24 C0.44771525,24 6.76353751e-17,23.5522847 0,23 L0,1 C-6.76353751e-17,0.44771525 0.44771525,1.01453063e-16 1,0 Z" fill="#000000" fill-rule="nonzero" opacity="0.200000003"></path>
        </g>
    </g>
</svg>