<?xml version="1.0" encoding="UTF-8"?>
<svg width="32px" height="24px" viewBox="0 0 32 24" version="1.1" xmlns="http://www.w3.org/2000/svg" xmlns:xlink="http://www.w3.org/1999/xlink">
    <!-- Generator: Sketch 46.1 (44463) - http://www.bohemiancoding.com/sketch -->
    <title>flags/32x24/pt</title>
    <desc>Created with Sketch.</desc>
    <defs></defs>
    <g stroke="none" stroke-width="1" fill="none" fill-rule="evenodd">
        <g>
            <path d="M1,0 L31,0 C31.5522847,-1.01453063e-16 32,0.44771525 32,1 L32,23 C32,23.5522847 31.5522847,24 31,24 L1,24 C0.44771525,24 6.76353751e-17,23.5522847 0,23 L0,1 C-6.76353751e-17,0.44771525 0.44771525,1.01453063e-16 1,0 Z" fill="#FF2936"></path>
            <path d="M1,0 L11,0 L11,24 L1,24 L1,24 C0.44771525,24 6.76353751e-17,23.5522847 0,23 L0,1 L0,1 C-6.76353751e-17,0.44771525 0.44771525,1.01453063e-16 1,0 Z" fill="#128415"></path>
            <path d="M11,18 C7.6862915,18 5,15.3137085 5,12 C5,8.6862915 7.6862915,6 11,6 C14.3137085,6 17,8.6862915 17,12 C17,15.3137085 14.3137085,18 11,18 Z M11,16 C13.209139,16 15,14.209139 15,12 C15,9.790861 13.209139,8 11,8 C8.790861,8 7,9.790861 7,12 C7,14.209139 8.790861,16 11,16 Z" fill="#FFFF00" fill-rule="nonzero"></path>
            <polygon fill="#FFFFFF" points="9 10 13 10 13 13 11 15 9 13"></polygon>
            <path d="M1,1 L1,23 L31,23 L31,1 L1,1 Z M1,0 L31,0 C31.5522847,-1.01453063e-16 32,0.44771525 32,1 L32,23 C32,23.5522847 31.5522847,24 31,24 L1,24 C0.44771525,24 6.76353751e-17,23.5522847 0,23 L0,1 C-6.76353751e-17,0.44771525 0.44771525,1.01453063e-16 1,0 Z" fill="#000000" fill-rule="nonzero" opacity="0.200000003"></path>
        </g>
    </g>
</svg>