<?xml version="1.0" encoding="UTF-8"?>
<svg width="32px" height="24px" viewBox="0 0 32 24" version="1.1" xmlns="http://www.w3.org/2000/svg" xmlns:xlink="http://www.w3.org/1999/xlink">
    <!-- Generator: Sketch 46.1 (44463) - http://www.bohemiancoding.com/sketch -->
    <title>flags/32x24/tr</title>
    <desc>Created with Sketch.</desc>
    <defs></defs>
    <g stroke="none" stroke-width="1" fill="none" fill-rule="evenodd">
        <g>
            <path d="M1,0 L31,0 C31.5522847,-1.01453063e-16 32,0.44771525 32,1 L32,23 C32,23.5522847 31.5522847,24 31,24 L1,24 C0.44771525,24 6.76353751e-17,23.5522847 0,23 L0,1 C-6.76353751e-17,0.44771525 0.44771525,1.01453063e-16 1,0 Z" fill="#E30A17"></path>
            <path d="M19.1675739,7.62467066 C17.9232752,6.02736013 15.981614,5 13.8,5 C10.0444637,5 7,8.0444637 7,11.8 C7,15.5555363 10.0444637,18.6 13.8,18.6 C15.981614,18.6 17.9232752,17.5726399 19.1675739,15.9753293 C18.2073817,16.6732071 17.0001466,17.0888889 15.6888889,17.0888889 C12.5592753,17.0888889 10.0222222,14.7209727 10.0222222,11.8 C10.0222222,8.87902732 12.5592753,6.51111111 15.6888889,6.51111111 C17.0001466,6.51111111 18.2073817,6.92679289 19.1675739,7.62467066 Z" fill="#FFFFFF"></path>
            <circle fill="#FFFFFF" cx="19.5" cy="11.5" r="1.5"></circle>
            <path d="M1,1 L1,23 L31,23 L31,1 L1,1 Z M1,0 L31,0 C31.5522847,-1.01453063e-16 32,0.44771525 32,1 L32,23 C32,23.5522847 31.5522847,24 31,24 L1,24 C0.44771525,24 6.76353751e-17,23.5522847 0,23 L0,1 C-6.76353751e-17,0.44771525 0.44771525,1.01453063e-16 1,0 Z" fill="#000000" fill-rule="nonzero" opacity="0.200000003"></path>
        </g>
    </g>
</svg>