<?xml version="1.0" encoding="UTF-8"?>
<svg width="32px" height="24px" viewBox="0 0 32 24" version="1.1" xmlns="http://www.w3.org/2000/svg" xmlns:xlink="http://www.w3.org/1999/xlink">
    <!-- Generator: Sketch 46.1 (44463) - http://www.bohemiancoding.com/sketch -->
    <title>flags/32x24/za</title>
    <desc>Created with Sketch.</desc>
    <defs></defs>
    <g stroke="none" stroke-width="1" fill="none" fill-rule="evenodd">
        <g>
            <path d="M1,0 L31,0 C31.5522847,-1.01453063e-16 32,0.44771525 32,1 L32,23 C32,23.5522847 31.5522847,24 31,24 L1,24 C0.44771525,24 6.76353751e-17,23.5522847 0,23 L0,1 C-6.76353751e-17,0.44771525 0.44771525,1.01453063e-16 1,0 Z" fill="#F7F7F7"></path>
            <path d="M1,0 L31,0 L31,0 C31.5522847,-1.01453063e-16 32,0.44771525 32,1 L32,7 L0,7 L0,1 L0,1 C-6.76353751e-17,0.44771525 0.44771525,1.01453063e-16 1,0 Z" fill="#CE1126"></path>
            <path d="M0,17 L32,17 L32,23 L32,23 C32,23.5522847 31.5522847,24 31,24 L1,24 L1,24 C0.44771525,24 6.76353751e-17,23.5522847 0,23 L0,17 Z" fill="#002395"></path>
            <path d="M3.33333333,0 L1,0 C0.44771525,1.01453063e-16 -6.76353751e-17,0.44771525 0,1 L0,23 C6.76353751e-17,23.5522847 0.44771525,24 1,24 L3.33333333,24 L12.6666667,17 L32,17 L32,7 L12.6666667,7 L3.33333333,1.11022302e-16 Z" fill="#F7F7F7"></path>
            <path d="M0.336154382,23.7478842 C0.129934496,23.5647034 3.64363775e-17,23.2975256 0,23 L0,1 C-3.64363775e-17,0.702474399 0.129934496,0.435296626 0.336154382,0.252115787 L12,9 L32,9 L32,15 L12,15 L0.336154382,23.7478842 Z" fill="#007A4D"></path>
            <polygon fill="#FFB612" points="10 12 0 19 0 5"></polygon>
            <polygon fill="#000000" points="7.14285714 12 0 17 0 7"></polygon>
            <path d="M1,1 L1,23 L31,23 L31,1 L1,1 Z M1,0 L31,0 C31.5522847,-1.01453063e-16 32,0.44771525 32,1 L32,23 C32,23.5522847 31.5522847,24 31,24 L1,24 C0.44771525,24 6.76353751e-17,23.5522847 0,23 L0,1 C-6.76353751e-17,0.44771525 0.44771525,1.01453063e-16 1,0 Z" fill="#000000" fill-rule="nonzero" opacity="0.200000003"></path>
        </g>
    </g>
</svg>