<?xml version="1.0" encoding="UTF-8" standalone="no"?>
<svg width="24px" height="18px" viewBox="0 0 24 18" version="1.1" xmlns="http://www.w3.org/2000/svg" xmlns:xlink="http://www.w3.org/1999/xlink">
    <!-- Generator: Sketch 45.2 (43514) - http://www.bohemiancoding.com/sketch -->
    <title>flags/24x18/br</title>
    <desc>Created with Sketch.</desc>
    <defs></defs>
    <g id="Flags" stroke="none" stroke-width="1" fill="none" fill-rule="evenodd">
        <g id="flags/24x18/br">
            <path d="M1,0 L23,0 C23.5522847,-1.01453063e-16 24,0.44771525 24,1 L24,17 C24,17.5522847 23.5522847,18 23,18 L1,18 C0.44771525,18 6.76353751e-17,17.5522847 0,17 L0,1 C-6.76353751e-17,0.44771525 0.44771525,1.01453063e-16 1,0 Z" id="mask" fill="#009B3A"></path>
            <polygon id="Rectangle-20" fill="#FEDF00" points="2.25 9 12 2.25 21.75 9 12 15.75"></polygon>
            <circle id="Mask" fill="#002776" cx="12" cy="9" r="3.75"></circle>
            <path d="M8.89805945,6.89210649 C9.19382014,6.45771375 9.5784413,6.08867716 10.0257763,5.81114333 L15.7482695,9.11502629 C15.7319172,9.6577871 15.6002321,10.1715552 15.3768861,10.6326588 L8.89805945,6.89210649 Z" id="Combined-Shape" fill="#F7F7F7"></path>
            <path d="M1,1 L1,17 L23,17 L23,1 L1,1 Z M1,0 L23,0 C23.5522847,-1.01453063e-16 24,0.44771525 24,1 L24,17 C24,17.5522847 23.5522847,18 23,18 L1,18 C0.44771525,18 6.76353751e-17,17.5522847 0,17 L0,1 C-6.76353751e-17,0.44771525 0.44771525,1.01453063e-16 1,0 Z" id="stroke" fill="#000000" fill-rule="nonzero" opacity="0.200000003"></path>
        </g>
    </g>
</svg>