<?xml version="1.0" encoding="UTF-8" standalone="no"?>
<svg width="24px" height="18px" viewBox="0 0 24 18" version="1.1" xmlns="http://www.w3.org/2000/svg" xmlns:xlink="http://www.w3.org/1999/xlink">
    <!-- Generator: Sketch 45.2 (43514) - http://www.bohemiancoding.com/sketch -->
    <title>flags/24x18/ca</title>
    <desc>Created with Sketch.</desc>
    <defs>
        <path d="M1,1 L1,17 L23,17 L23,1 L1,1 Z M1,0 L23,0 C23.5522847,-1.01453063e-16 24,0.44771525 24,1 L24,17 C24,17.5522847 23.5522847,18 23,18 L1,18 C0.44771525,18 6.76353751e-17,17.5522847 0,17 L0,1 C-6.76353751e-17,0.44771525 0.44771525,1.01453063e-16 1,0 Z" id="path-1"></path>
    </defs>
    <g id="Flags" stroke="none" stroke-width="1" fill="none" fill-rule="evenodd">
        <g id="flags/24x18/ca">
            <path d="M1,0 L23,0 C23.5522847,-1.01453063e-16 24,0.44771525 24,1 L24,17 C24,17.5522847 23.5522847,18 23,18 L1,18 C0.44771525,18 6.76353751e-17,17.5522847 0,17 L0,1 C-6.76353751e-17,0.44771525 0.44771525,1.01453063e-16 1,0 Z" id="mask" fill="#F7F7F7"></path>
            <path d="M17.25,0 L23,0 L23,0 C23.5522847,-5.91980459e-16 24,0.44771525 24,1 L24,17 L24,17 C24,17.5522847 23.5522847,18 23,18 L17.25,18 L17.25,0 Z" id="Rectangle" fill="#ED2939"></path>
            <polygon id="Combined-Shape" fill="#ED2939" points="13 11.6666667 15 11 16 8 14 8 12 5 10 8 8 8 9 11 11 11.6666667 11 13 13 13"></polygon>
            <path d="M1,0 L6.75,0 L6.75,18 L1,18 L1,18 C0.44771525,18 6.76353751e-17,17.5522847 0,17 L0,1 L0,1 C-6.76353751e-17,0.44771525 0.44771525,1.01453063e-16 1,0 Z" id="Rectangle" fill="#ED2939"></path>
            <mask id="mask-2" fill="white">
                <use xlink:href="#path-1"></use>
            </mask>
            <use id="stroke" fill="#000000" fill-rule="nonzero" opacity="0.200000003" xlink:href="#path-1"></use>
        </g>
    </g>
</svg>