<?xml version="1.0" encoding="UTF-8" standalone="no"?>
<svg width="24px" height="18px" viewBox="0 0 24 18" version="1.1" xmlns="http://www.w3.org/2000/svg" xmlns:xlink="http://www.w3.org/1999/xlink">
    <!-- Generator: Sketch 45.2 (43514) - http://www.bohemiancoding.com/sketch -->
    <title>flags/24x18/ch</title>
    <desc>Created with Sketch.</desc>
    <defs></defs>
    <g id="Flags" stroke="none" stroke-width="1" fill="none" fill-rule="evenodd">
        <g id="flags/24x18/ch">
            <path d="M4,0 L20,0 C20.5522847,-1.01453063e-16 21,0.44771525 21,1 L21,17 C21,17.5522847 20.5522847,18 20,18 L4,18 C3.44771525,18 3,17.5522847 3,17 L3,1 C3,0.44771525 3.44771525,1.01453063e-16 4,0 Z" id="mask" fill="#D52B1E"></path>
            <polygon id="Combined-Shape" fill="#FFFFFF" points="13 8 13 5 11 5 11 8 8 8 8 10 11 10 11 13 13 13 13 10 16 10 16 8"></polygon>
            <path d="M4,1 L4,17 L20,17 L20,1 L4,1 Z M4,0 L20,0 C20.5522847,-1.01453063e-16 21,0.44771525 21,1 L21,17 C21,17.5522847 20.5522847,18 20,18 L4,18 C3.44771525,18 3,17.5522847 3,17 L3,1 C3,0.44771525 3.44771525,1.01453063e-16 4,0 Z" id="stroke" fill="#000000" fill-rule="nonzero" opacity="0.200000003"></path>
        </g>
    </g>
</svg>