<?xml version="1.0" encoding="UTF-8" standalone="no"?>
<svg width="24px" height="18px" viewBox="0 0 24 18" version="1.1" xmlns="http://www.w3.org/2000/svg" xmlns:xlink="http://www.w3.org/1999/xlink">
    <!-- Generator: Sketch 45.2 (43514) - http://www.bohemiancoding.com/sketch -->
    <title>flags/24x18/cy</title>
    <desc>Created with Sketch.</desc>
    <defs></defs>
    <g id="Flags" stroke="none" stroke-width="1" fill="none" fill-rule="evenodd">
        <g id="flags/24x18/cy">
            <path d="M1,0 L23,0 C23.5522847,-1.01453063e-16 24,0.44771525 24,1 L24,17 C24,17.5522847 23.5522847,18 23,18 L1,18 C0.44771525,18 6.76353751e-17,17.5522847 0,17 L0,1 C-6.76353751e-17,0.44771525 0.44771525,1.01453063e-16 1,0 Z" id="mask" fill="#F7F7F7"></path>
            <path d="M14.4278781,14.0336344 C14.13316,14.1318737 13.814605,13.9725962 13.7163656,13.6778781 C13.6181263,13.38316 13.7774038,13.064605 14.0721219,12.9663656 C14.1571259,12.938031 14.3176624,12.8768742 14.5277971,12.783481 C14.8802261,12.6268459 15.2324449,12.4389959 15.5579811,12.2219717 C16.1135021,11.8516244 16.5270853,11.4380413 16.7468847,10.9984424 C16.8858162,10.7205794 17.2236947,10.6079533 17.5015576,10.7468847 C17.7794206,10.8858162 17.8920467,11.2236947 17.7531153,11.5015576 C17.4329147,12.1419587 16.8864979,12.6883756 16.1820189,13.1580283 C15.7988051,13.4135041 15.3916489,13.6306541 14.9847029,13.811519 C14.7392126,13.9206258 14.5453741,13.994469 14.4278781,14.0336344 Z M9.57209249,14.0336344 C9.45459651,13.994469 9.260758,13.9206258 9.01526772,13.811519 C8.60832166,13.6306541 8.20116552,13.4135041 7.81795175,13.1580283 C7.11347274,12.6883756 6.56705586,12.1419587 6.24685532,11.5015576 C6.10792386,11.2236947 6.22055006,10.8858162 6.49841296,10.7468847 C6.77627587,10.6079533 7.11415445,10.7205794 7.25308591,10.9984424 C7.47288536,11.4380413 7.88646849,11.8516244 8.44198947,12.2219717 C8.7675257,12.4389959 9.11974456,12.6268459 9.4721735,12.783481 C9.68230822,12.8768742 9.84284471,12.938031 9.92784873,12.9663656 C10.2225668,13.064605 10.3818443,13.38316 10.283605,13.6778781 C10.1853656,13.9725962 9.86681061,14.1318737 9.57209249,14.0336344 Z M12,14.25 C11.5857864,14.25 11.25,13.9142136 11.25,13.5 C11.25,13.0857864 11.5857864,12.75 12,12.75 C12.4142136,12.75 12.75,13.0857864 12.75,13.5 C12.75,13.9142136 12.4142136,14.25 12,14.25 Z" id="palm" fill="#445128" fill-rule="nonzero"></path>
            <path d="M18.0916574,3 C18.45525,3 18.6160714,3.26471663 18.450213,3.5925442 L18.1926441,4.10164224 C18.0270763,4.42889537 17.625,4.82654476 17.2932832,4.99045855 L16.7781454,5.24500756 C16.4470098,5.40863413 15.9622781,5.75503705 15.7098737,6.00448207 L15.7901263,5.92517049 C15.5312717,6.18099011 15.5892857,6.5207312 15.9210025,6.68464499 L16.4361403,6.93919401 C16.7672759,7.10282057 16.7678571,7.36782443 16.4361403,7.53173821 L15.9210025,7.78628723 C15.589867,7.94991379 15.0312391,8.08255933 14.6630859,8.08255933 L15.1226283,8.08255933 C14.7590358,8.08255933 14.2479924,8.29631672 13.995588,8.54576174 L14.0758405,8.46645015 C13.816986,8.72226978 13.3392857,9.06201087 13.0075689,9.22592466 L12.4924311,9.48047368 C12.1612955,9.64410024 11.6026677,9.77674578 11.2345145,9.77674578 L11.6940569,9.77674578 C11.3304643,9.77674578 10.819421,9.99050316 10.5670166,10.2399482 L10.6472691,10.1606366 C10.3884145,10.4164562 9.90338353,10.5331852 9.54293724,10.4144451 L8.24277704,9.98613966 C7.89172597,9.87049461 7.47321429,9.51202915 7.30735588,9.18420157 L7.04978698,8.67510354 C6.8842192,8.34785041 6.75,7.77673924 6.75,7.4151128 L6.75,7.90291265 C6.75,7.5342921 7.01785714,7.10310779 7.34957395,6.93919401 L7.86471176,6.68464499 C8.19584731,6.52101843 8.75447518,6.38837289 9.12262835,6.38837289 L8.66308594,6.38837289 C9.02667853,6.38837289 9.45535714,6.12365626 9.62121555,5.79582869 L9.87878445,5.28673065 C10.0443522,4.95947752 10.473547,4.69418644 10.854184,4.69418644 L14.645816,4.69418644 C15.0189465,4.69418644 15.5892857,4.56182813 15.9210025,4.39791434 L16.4361403,4.14336532 C16.7672759,3.97973876 17.2520076,3.63333583 17.504412,3.38389082 L17.4241595,3.4632024 C17.683014,3.20738278 18.1830466,3 18.5511998,3 L18.0916574,3 Z" id="form-country" fill="#E7832C"></path>
            <path d="M1,1 L1,17 L23,17 L23,1 L1,1 Z M1,0 L23,0 C23.5522847,-1.01453063e-16 24,0.44771525 24,1 L24,17 C24,17.5522847 23.5522847,18 23,18 L1,18 C0.44771525,18 6.76353751e-17,17.5522847 0,17 L0,1 C-6.76353751e-17,0.44771525 0.44771525,1.01453063e-16 1,0 Z" id="stroke" fill="#000000" fill-rule="nonzero" opacity="0.200000003"></path>
        </g>
    </g>
</svg>