<?xml version="1.0" encoding="UTF-8" standalone="no"?>
<svg width="24px" height="18px" viewBox="0 0 24 18" version="1.1" xmlns="http://www.w3.org/2000/svg" xmlns:xlink="http://www.w3.org/1999/xlink">
    <!-- Generator: Sketch 45.2 (43514) - http://www.bohemiancoding.com/sketch -->
    <title>flags/24x18/eg</title>
    <desc>Created with Sketch.</desc>
    <defs></defs>
    <g id="Flags" stroke="none" stroke-width="1" fill="none" fill-rule="evenodd">
        <g id="flags/24x18/eg">
            <path d="M1,0 L23,0 C23.5522847,-1.01453063e-16 24,0.44771525 24,1 L24,17 C24,17.5522847 23.5522847,18 23,18 L1,18 C0.44771525,18 6.76353751e-17,17.5522847 0,17 L0,1 C-6.76353751e-17,0.44771525 0.44771525,1.01453063e-16 1,0 Z" id="mask" fill="#F7F7F7"></path>
            <path d="M1,0 L23,0 L23,0 C23.5522847,-1.01453063e-16 24,0.44771525 24,1 L24,5 L0,5 L0,1 L0,1 C-6.76353751e-17,0.44771525 0.44771525,1.01453063e-16 1,0 Z" id="Rectangle-11" fill="#CE1126"></path>
            <path d="M0,13 L24,13 L24,17 L24,17 C24,17.5522847 23.5522847,18 23,18 L1,18 L1,18 C0.44771525,18 6.76353751e-17,17.5522847 0,17 L0,13 Z" id="Rectangle-11" fill="#000000"></path>
            <polygon id="Ornament" fill="#C09300" points="9.75 6 14.25 6 14.25 10.5 12 12 9.75 10.5"></polygon>
            <path d="M1,1 L1,17 L23,17 L23,1 L1,1 Z M1,0 L23,0 C23.5522847,-1.01453063e-16 24,0.44771525 24,1 L24,17 C24,17.5522847 23.5522847,18 23,18 L1,18 C0.44771525,18 6.76353751e-17,17.5522847 0,17 L0,1 C-6.76353751e-17,0.44771525 0.44771525,1.01453063e-16 1,0 Z" id="stroke" fill="#000000" fill-rule="nonzero" opacity="0.200000003"></path>
        </g>
    </g>
</svg>