<?xml version="1.0" encoding="UTF-8" standalone="no"?>
<svg width="24px" height="18px" viewBox="0 0 24 18" version="1.1" xmlns="http://www.w3.org/2000/svg" xmlns:xlink="http://www.w3.org/1999/xlink">
    <!-- Generator: Sketch 45.2 (43514) - http://www.bohemiancoding.com/sketch -->
    <title>flags/24x18/es</title>
    <desc>Created with Sketch.</desc>
    <defs></defs>
    <g id="Flags" stroke="none" stroke-width="1" fill="none" fill-rule="evenodd">
        <g id="flags/24x18/es">
            <path d="M1,0 L23,0 C23.5522847,-1.01453063e-16 24,0.44771525 24,1 L24,17 C24,17.5522847 23.5522847,18 23,18 L1,18 C0.44771525,18 6.76353751e-17,17.5522847 0,17 L0,1 C-6.76353751e-17,0.44771525 0.44771525,1.01453063e-16 1,0 Z" id="mask" fill="#FFC400"></path>
            <path d="M0,13 L24,13 L24,17 L24,17 C24,17.5522847 23.5522847,18 23,18 L1,18 L1,18 C0.44771525,18 6.76353751e-17,17.5522847 0,17 L0,13 Z" id="Rectangle" fill="#C60B1E"></path>
            <path d="M1,0 L23,0 L23,0 C23.5522847,-1.01453063e-16 24,0.44771525 24,1 L24,5 L0,5 L0,1 L0,1 C-6.76353751e-17,0.44771525 0.44771525,1.01453063e-16 1,0 Z" id="Rectangle" fill="#C60B1E"></path>
            <path d="M6,7 L9,7 C9.55228475,7 10,7.44771525 10,8 L10,10 C10,10.5522847 9.55228475,11 9,11 L6,11 C5.44771525,11 5,10.5522847 5,10 L5,8 C5,7.44771525 5.44771525,7 6,7 Z" id="ornament" fill="#91443A"></path>
            <path d="M1,1 L1,17 L23,17 L23,1 L1,1 Z M1,0 L23,0 C23.5522847,-1.01453063e-16 24,0.44771525 24,1 L24,17 C24,17.5522847 23.5522847,18 23,18 L1,18 C0.44771525,18 6.76353751e-17,17.5522847 0,17 L0,1 C-6.76353751e-17,0.44771525 0.44771525,1.01453063e-16 1,0 Z" id="stroke" fill="#000000" fill-rule="nonzero" opacity="0.200000003"></path>
        </g>
    </g>
</svg>