<?xml version="1.0" encoding="UTF-8" standalone="no"?>
<svg width="24px" height="18px" viewBox="0 0 24 18" version="1.1" xmlns="http://www.w3.org/2000/svg" xmlns:xlink="http://www.w3.org/1999/xlink">
    <!-- Generator: Sketch 45.2 (43514) - http://www.bohemiancoding.com/sketch -->
    <title>flags/24x18/gb</title>
    <desc>Created with Sketch.</desc>
    <defs></defs>
    <g id="Flags" stroke="none" stroke-width="1" fill="none" fill-rule="evenodd">
        <g id="flags/24x18/gb">
            <path d="M1,0 L23,0 C23.5522847,-1.01453063e-16 24,0.44771525 24,1 L24,17 C24,17.5522847 23.5522847,18 23,18 L1,18 C0.44771525,18 6.76353751e-17,17.5522847 0,17 L0,1 C-6.76353751e-17,0.44771525 0.44771525,1.01453063e-16 1,0 Z" id="mask" fill="#273C83"></path>
            <path d="M2.65550239,0 L1,0 C0.757345167,4.45749697e-17 0.534876638,0.0864278437 0.361698657,0.230179288 L0.0434337954,0.70757658 C0.0151929517,0.800072509 0,0.898262002 0,1 L0,2.9512987 L8.86124402,8.96428571 L8.8817842e-16,14.9772727 L0,17 C0,17.5522847 0.44771525,18 1,18 L2.55023923,18 L12.3636364,11.3409091 L22.1770335,18 L23,18 C23.5522847,18 24,17.5522847 24,17 L24,14.4837662 L15.8660287,8.96428571 L24,3.44480519 L24,1 C24,0.44771525 23.5522847,-1.01453063e-16 23,0 L22.0717703,0 L12.3636364,6.58766234 L2.65550239,0 Z" id="Combined-Shape" fill="#F7F7F7"></path>
            <path d="M23.648342,0.238625085 C23.863532,0.422045559 24,0.695085873 24,1 L24,1.67857143 L13.2368421,8.98214286 L24,16.2857143 L24,17 C24,17.2939377 23.8731804,17.5582552 23.6712727,17.7412207 L12,9.82142857 L0.328727342,17.7412207 C0.126819632,17.5582552 3.59969914e-17,17.2939377 0,17 L0,16.2857143 L10.7631579,8.98214286 L3.33066907e-16,1.67857143 L0,1 C-3.73412109e-17,0.695085873 0.136468016,0.422045559 0.35165802,0.238625085 L12,8.14285714 L23.648342,0.238625085 L23.648342,0.238625085 Z" id="Combined-Shape" fill="#DC1E35"></path>
            <polygon id="cross-outter" fill="#F7F7F7" points="14 7 24 7 24 11 14 11 14 18 10 18 10 11 0 11 0 7 10 7 10 0 14 0"></polygon>
            <polygon id="cross-inner" fill="#DC1E35" points="13 8 13 0 11 0 11 8 0 8 0 10 11 10 11 18 13 18 13 10 24 10 24 8"></polygon>
            <path d="M1,1 L1,17 L23,17 L23,1 L1,1 Z M1,0 L23,0 C23.5522847,-1.01453063e-16 24,0.44771525 24,1 L24,17 C24,17.5522847 23.5522847,18 23,18 L1,18 C0.44771525,18 6.76353751e-17,17.5522847 0,17 L0,1 C-6.76353751e-17,0.44771525 0.44771525,1.01453063e-16 1,0 Z" id="stroke" fill="#000000" fill-rule="nonzero" opacity="0.200000003"></path>
        </g>
    </g>
</svg>