<?xml version="1.0" encoding="UTF-8" standalone="no"?>
<svg width="24px" height="18px" viewBox="0 0 24 18" version="1.1" xmlns="http://www.w3.org/2000/svg" xmlns:xlink="http://www.w3.org/1999/xlink">
    <!-- Generator: Sketch 45.2 (43514) - http://www.bohemiancoding.com/sketch -->
    <title>flags/24x18/ge</title>
    <desc>Created with Sketch.</desc>
    <defs></defs>
    <g id="Flags" stroke="none" stroke-width="1" fill="none" fill-rule="evenodd">
        <g id="flags/24x18/ge">
            <path d="M1,0 L23,0 C23.5522847,-1.01453063e-16 24,0.44771525 24,1 L24,17 C24,17.5522847 23.5522847,18 23,18 L1,18 C0.44771525,18 6.76353751e-17,17.5522847 0,17 L0,1 C-6.76353751e-17,0.44771525 0.44771525,1.01453063e-16 1,0 Z" id="mask" fill="#F7F7F7"></path>
            <polygon id="cross-inner" fill="#FF0000" points="13 8 13 0 11 0 11 8 0 8 0 10 11 10 11 18 13 18 13 10 24 10 24 8"></polygon>
            <path d="M5.5,6 C4.67157288,6 4,5.32842712 4,4.5 C4,3.67157288 4.67157288,3 5.5,3 C6.32842712,3 7,3.67157288 7,4.5 C7,5.32842712 6.32842712,6 5.5,6 Z M18.5,6 C17.6715729,6 17,5.32842712 17,4.5 C17,3.67157288 17.6715729,3 18.5,3 C19.3284271,3 20,3.67157288 20,4.5 C20,5.32842712 19.3284271,6 18.5,6 Z M5.5,15 C4.67157288,15 4,14.3284271 4,13.5 C4,12.6715729 4.67157288,12 5.5,12 C6.32842712,12 7,12.6715729 7,13.5 C7,14.3284271 6.32842712,15 5.5,15 Z M18.5,15 C17.6715729,15 17,14.3284271 17,13.5 C17,12.6715729 17.6715729,12 18.5,12 C19.3284271,12 20,12.6715729 20,13.5 C20,14.3284271 19.3284271,15 18.5,15 Z" id="ovals" fill="#FF0000"></path>
            <path d="M1,1 L1,17 L23,17 L23,1 L1,1 Z M1,0 L23,0 C23.5522847,-1.01453063e-16 24,0.44771525 24,1 L24,17 C24,17.5522847 23.5522847,18 23,18 L1,18 C0.44771525,18 6.76353751e-17,17.5522847 0,17 L0,1 C-6.76353751e-17,0.44771525 0.44771525,1.01453063e-16 1,0 Z" id="stroke" fill="#000000" fill-rule="nonzero" opacity="0.200000003"></path>
        </g>
    </g>
</svg>