<?xml version="1.0" encoding="UTF-8" standalone="no"?>
<svg width="24px" height="18px" viewBox="0 0 24 18" version="1.1" xmlns="http://www.w3.org/2000/svg" xmlns:xlink="http://www.w3.org/1999/xlink">
    <!-- Generator: Sketch 45.2 (43514) - http://www.bohemiancoding.com/sketch -->
    <title>flags/24x18/hk</title>
    <desc>Created with Sketch.</desc>
    <defs>
        <path d="M1,0 L23,0 C23.5522847,-1.01453063e-16 24,0.44771525 24,1 L24,17 C24,17.5522847 23.5522847,18 23,18 L1,18 C0.44771525,18 6.76353751e-17,17.5522847 0,17 L0,1 C-6.76353751e-17,0.44771525 0.44771525,1.01453063e-16 1,0 Z" id="path-1"></path>
    </defs>
    <g id="Flags" stroke="none" stroke-width="1" fill="none" fill-rule="evenodd">
        <g id="flags/24x18/hk">
            <mask id="mask-2" fill="white">
                <use xlink:href="#path-1"></use>
            </mask>
            <use id="mask" fill="#DE2910" xlink:href="#path-1"></use>
            <path d="M13.8426886,8.52975164 C12.7368803,7.8368664 12.4569181,9.09584078 12.4569181,8.52975164 C12.4569181,7.38174179 13.6977793,6.45109593 15.2284591,6.45109593 C16.7591389,6.45109593 18,7.38174179 18,8.52975164 C16.6851082,8.52975164 16.5537561,9.22263687 15.9213443,9.22263687 C15.14545,9.22263687 14.9484969,9.22263687 13.8426886,8.52975164 Z M13.0653458,10.9854426 C13.3826053,9.71964312 12.0987364,9.84242774 12.6371192,9.66749658 C13.7289415,9.31274203 14.9974854,10.2052857 15.4704915,11.6610487 C15.9434976,13.1168117 15.441848,14.5845262 14.3500257,14.9392807 C13.9437018,13.6887443 13.2441387,13.7779343 13.0487128,13.176475 C12.8089482,12.4385557 12.7480864,12.2512421 13.0653458,10.9854426 Z M10.4896328,11.004996 C11.7915182,10.9155741 11.2780058,9.73248479 11.6107447,10.1904605 C12.2855279,11.11922 11.8286701,12.6014882 10.5903241,13.5011992 C9.35197814,14.4009102 7.80108048,14.3773618 7.12629722,13.4486023 C8.19006706,12.6757283 7.88906541,12.0379655 8.40069729,11.6662432 C9.02840894,11.210184 9.18774738,11.0944179 10.4896328,11.004996 Z M9.67509736,8.56138963 C10.1624473,9.77192337 11.1289481,8.91794934 10.7962092,9.37592508 C10.121426,10.3046846 8.5705283,10.328233 7.33218233,9.42852198 C6.09383636,8.52881097 5.63697851,7.04654277 6.31176177,6.11778329 C7.37553161,6.89065732 7.88906541,6.40730822 8.40069729,6.77903053 C9.02840894,7.23508974 9.18774738,7.35085589 9.67509736,8.56138963 Z M11.7473998,7.0316045 C10.7467132,7.86917738 11.8575559,8.52448171 11.3191732,8.34955054 C10.2273509,7.99479599 9.7257013,6.52708152 10.1987074,5.07131853 C10.6717134,3.61555553 11.9402574,2.72301184 13.0320797,3.07776639 C12.6257558,4.32830283 13.2441387,4.66733942 13.0487128,5.26879876 C12.8089482,6.00671806 12.7480864,6.19403163 11.7473998,7.0316045 Z" id="Oval-145" fill="#FFFFFF" mask="url(#mask-2)"></path>
            <path d="M1,1 L1,17 L23,17 L23,1 L1,1 Z M1,0 L23,0 C23.5522847,-1.01453063e-16 24,0.44771525 24,1 L24,17 C24,17.5522847 23.5522847,18 23,18 L1,18 C0.44771525,18 6.76353751e-17,17.5522847 0,17 L0,1 C-6.76353751e-17,0.44771525 0.44771525,1.01453063e-16 1,0 Z" id="stroke" fill="#000000" fill-rule="nonzero" opacity="0.200000003" mask="url(#mask-2)"></path>
        </g>
    </g>
</svg>