<?xml version="1.0" encoding="UTF-8" standalone="no"?>
<svg width="24px" height="18px" viewBox="0 0 24 18" version="1.1" xmlns="http://www.w3.org/2000/svg" xmlns:xlink="http://www.w3.org/1999/xlink">
    <!-- Generator: Sketch 45.2 (43514) - http://www.bohemiancoding.com/sketch -->
    <title>flags/24x18/il</title>
    <desc>Created with Sketch.</desc>
    <defs></defs>
    <g id="Flags" stroke="none" stroke-width="1" fill="none" fill-rule="evenodd">
        <g id="flags/24x18/il">
            <path d="M1,0 L23,0 C23.5522847,-1.01453063e-16 24,0.44771525 24,1 L24,17 C24,17.5522847 23.5522847,18 23,18 L1,18 C0.44771525,18 6.76353751e-17,17.5522847 0,17 L0,1 C-6.76353751e-17,0.44771525 0.44771525,1.01453063e-16 1,0 Z" id="mask" fill="#F7F7F7"></path>
            <polygon id="Rectangle-9" fill="#0D5EAF" points="0 2 24 2 24 5 0 5"></polygon>
            <polygon id="Rectangle-9" fill="#0D5EAF" points="0 13 24 13 24 16 0 16"></polygon>
            <path d="M16,7 L14.6666667,9 L16,11 L13.3333333,11 L12,13 L10.6666667,11 L8,11 L9.33333333,9 L8,7 L10.6666667,7 L12,5 L13.3333333,7 L16,7 Z M12,10.5 C12.8284271,10.5 13.5,9.82842712 13.5,9 C13.5,8.17157288 12.8284271,7.5 12,7.5 C11.1715729,7.5 10.5,8.17157288 10.5,9 C10.5,9.82842712 11.1715729,10.5 12,10.5 Z" id="ornament" fill="#0D5EAF" fill-rule="nonzero"></path>
            <path d="M1,1 L1,17 L23,17 L23,1 L1,1 Z M1,0 L23,0 C23.5522847,-1.01453063e-16 24,0.44771525 24,1 L24,17 C24,17.5522847 23.5522847,18 23,18 L1,18 C0.44771525,18 6.76353751e-17,17.5522847 0,17 L0,1 C-6.76353751e-17,0.44771525 0.44771525,1.01453063e-16 1,0 Z" id="stroke" fill="#000000" fill-rule="nonzero" opacity="0.200000003"></path>
        </g>
    </g>
</svg>