<?xml version="1.0" encoding="UTF-8" standalone="no"?>
<svg width="24px" height="18px" viewBox="0 0 24 18" version="1.1" xmlns="http://www.w3.org/2000/svg" xmlns:xlink="http://www.w3.org/1999/xlink">
    <!-- Generator: Sketch 45.2 (43514) - http://www.bohemiancoding.com/sketch -->
    <title>flags/24x18/kr</title>
    <desc>Created with Sketch.</desc>
    <defs></defs>
    <g id="Flags" stroke="none" stroke-width="1" fill="none" fill-rule="evenodd">
        <g id="flags/24x18/kr">
            <path d="M1,0 L23,0 C23.5522847,-1.01453063e-16 24,0.44771525 24,1 L24,17 C24,17.5522847 23.5522847,18 23,18 L1,18 C0.44771525,18 6.76353751e-17,17.5522847 0,17 L0,1 C-6.76353751e-17,0.44771525 0.44771525,1.01453063e-16 1,0 Z" id="mask" fill="#F7F7F7"></path>
            <path d="M8.25,9 C8.25,11.0710678 9.92893219,12.75 12,12.75 C14.0710678,12.75 15.75,11.0710678 15.75,9 L8.25,9 Z" id="Combined-Shape" fill="#0066B3"></path>
            <path d="M8.25,9 C8.25,6.92893219 9.92893219,5.25 12,5.25 C14.0710678,5.25 15.75,6.92893219 15.75,9 L8.25,9 Z" id="Combined-Shape" fill="#ED1C24"></path>
            <path d="M15.7007579,4.88812432 L16.7636436,3.82523862 L19.5212019,6.5827969 L18.4583162,7.6456826 L15.7007579,4.88812432 Z M8.27120186,4.88812432 L5.51364359,7.6456826 L4.45075789,6.5827969 L7.20831616,3.82523862 L8.27120186,4.88812432 Z M15.7007579,13.5827969 L18.4583162,10.8252386 L19.5212019,11.8881243 L16.7636436,14.6456826 L15.7007579,13.5827969 Z M8.27120186,13.5827969 L7.20831616,14.6456826 L4.45075789,11.8881243 L5.51364359,10.8252386 L8.27120186,13.5827969 Z M17.2007579,3.33256877 L18.2636436,2.26968307 L21.0212019,5.02724134 L19.9583162,6.09012705 L17.2007579,3.33256877 Z M6.77120186,3.33256877 L4.01364359,6.09012705 L2.95075789,5.02724134 L5.70831616,2.26968307 L6.77120186,3.33256877 Z M17.2007579,15.1383525 L19.9583162,12.3807942 L21.0212019,13.4436799 L18.2636436,16.2012382 L17.2007579,15.1383525 Z M6.77120186,15.1383525 L5.70831616,16.2012382 L2.95075789,13.4436799 L4.01364359,12.3807942 L6.77120186,15.1383525 Z" id="Combined-Shape" fill="#333333"></path>
            <path d="M1,1 L1,17 L23,17 L23,1 L1,1 Z M1,0 L23,0 C23.5522847,-1.01453063e-16 24,0.44771525 24,1 L24,17 C24,17.5522847 23.5522847,18 23,18 L1,18 C0.44771525,18 6.76353751e-17,17.5522847 0,17 L0,1 C-6.76353751e-17,0.44771525 0.44771525,1.01453063e-16 1,0 Z" id="stroke" fill="#000000" fill-rule="nonzero" opacity="0.200000003"></path>
        </g>
    </g>
</svg>