<?xml version="1.0" encoding="UTF-8" standalone="no"?>
<svg width="24px" height="18px" viewBox="0 0 24 18" version="1.1" xmlns="http://www.w3.org/2000/svg" xmlns:xlink="http://www.w3.org/1999/xlink">
    <!-- Generator: Sketch 45.2 (43514) - http://www.bohemiancoding.com/sketch -->
    <title>flags/24x18/mx</title>
    <desc>Created with Sketch.</desc>
    <defs></defs>
    <g id="Flags" stroke="none" stroke-width="1" fill="none" fill-rule="evenodd">
        <g id="flags/24x18/mx">
            <path d="M1,0 L23,0 C23.5522847,-1.01453063e-16 24,0.44771525 24,1 L24,17 C24,17.5522847 23.5522847,18 23,18 L1,18 C0.44771525,18 6.76353751e-17,17.5522847 0,17 L0,1 C-6.76353751e-17,0.44771525 0.44771525,1.01453063e-16 1,0 Z" id="mask" fill="#F7F7F7"></path>
            <path d="M17.25,0 L23,0 L23,0 C23.5522847,-5.91980459e-16 24,0.44771525 24,1 L24,17 L24,17 C24,17.5522847 23.5522847,18 23,18 L17.25,18 L17.25,0 Z" id="Rectangle" fill="#CE1126"></path>
            <path d="M1,0 L6.75,0 L6.75,18 L1,18 L1,18 C0.44771525,18 6.76353751e-17,17.5522847 0,17 L0,1 L0,1 C-6.76353751e-17,0.44771525 0.44771525,1.01453063e-16 1,0 Z" id="Rectangle" fill="#006847"></path>
            <path d="M13.6707683,12.8178037 C13.4679564,12.9005287 13.2487409,12.7664049 13.1811369,12.5182298 C13.113533,12.2700547 13.2231407,12.0018072 13.4259526,11.9190821 C13.4844486,11.8952222 13.5949227,11.8437235 13.7395281,11.7650793 C13.9820541,11.6331807 14.2244356,11.4749966 14.4484552,11.2922458 C14.8307401,10.9803851 15.1153497,10.6321166 15.266606,10.2619409 C15.3622124,10.0279592 15.5947255,9.93311934 15.7859384,10.0501102 C15.9771514,10.1671011 16.0546558,10.4516206 15.9590493,10.6856023 C15.7387014,11.2248688 15.3626816,11.6849934 14.8778903,12.0804767 C14.6141795,12.2956068 14.3339927,12.4784636 14.0539505,12.6307656 C13.8850149,12.7226418 13.7516238,12.7848235 13.6707683,12.8178037 Z M10.3292317,12.8178037 C10.2483762,12.7848235 10.1149851,12.7226418 9.94604954,12.6307656 C9.66600728,12.4784636 9.38582046,12.2956068 9.12210971,12.0804767 C8.63731845,11.6849934 8.26129855,11.2248688 8.04095072,10.6856023 C7.94534425,10.4516206 8.02284861,10.1671011 8.21406155,10.0501102 C8.4052745,9.93311934 8.63778758,10.0279592 8.73339405,10.2619409 C8.8846503,10.6321166 9.16925989,10.9803851 9.55154483,11.2922458 C9.77556445,11.4749966 10.0179459,11.6331807 10.2604719,11.7650793 C10.4050773,11.8437235 10.5155514,11.8952222 10.5740474,11.9190821 C10.7768593,12.0018072 10.886467,12.2700547 10.8188631,12.5182298 C10.7512591,12.7664049 10.5320436,12.9005287 10.3292317,12.8178037 Z M12,13 C11.6318102,13 11.3333333,12.6642136 11.3333333,12.25 C11.3333333,11.8357864 11.6318102,11.5 12,11.5 C12.3681898,11.5 12.6666667,11.8357864 12.6666667,12.25 C12.6666667,12.6642136 12.3681898,13 12,13 Z" id="Combined-Shape" fill="#445128" fill-rule="nonzero"></path>
            <circle id="Oval-8" fill="#9A5111" cx="12" cy="8" r="2"></circle>
            <path d="M1,1 L1,17 L23,17 L23,1 L1,1 Z M1,0 L23,0 C23.5522847,-1.01453063e-16 24,0.44771525 24,1 L24,17 C24,17.5522847 23.5522847,18 23,18 L1,18 C0.44771525,18 6.76353751e-17,17.5522847 0,17 L0,1 C-6.76353751e-17,0.44771525 0.44771525,1.01453063e-16 1,0 Z" id="stroke" fill="#000000" fill-rule="nonzero" opacity="0.200000003"></path>
        </g>
    </g>
</svg>