<?xml version="1.0" encoding="UTF-8" standalone="no"?>
<svg width="24px" height="18px" viewBox="0 0 24 18" version="1.1" xmlns="http://www.w3.org/2000/svg" xmlns:xlink="http://www.w3.org/1999/xlink">
    <!-- Generator: Sketch 45.2 (43514) - http://www.bohemiancoding.com/sketch -->
    <title>flags/24x18/my</title>
    <desc>Created with Sketch.</desc>
    <defs></defs>
    <g id="Flags" stroke="none" stroke-width="1" fill="none" fill-rule="evenodd">
        <g id="flags/24x18/my">
            <path d="M1,0 L23,0 C23.5522847,-1.01453063e-16 24,0.44771525 24,1 L24,17 C24,17.5522847 23.5522847,18 23,18 L1,18 C0.44771525,18 6.76353751e-17,17.5522847 0,17 L0,1 C-6.76353751e-17,0.44771525 0.44771525,1.01453063e-16 1,0 Z" id="mask" fill="#FFFFFF"></path>
            <path d="M0,2 L24,2 L24,4 L0,4 L0,2 Z M0,6 L24,6 L24,8 L0,8 L0,6 Z M0,10 L24,10 L24,12 L0,12 L0,10 Z M0,14 L24,14 L24,16 L0,16 L0,14 Z" id="Combined-Shape" fill="#CC0001"></path>
            <path d="M1,0 L12,0 L12,10 L0,10 L0,1 C-6.76353751e-17,0.44771525 0.44771525,1.01453063e-16 1,0 Z" id="Rectangle-17" fill="#010066"></path>
            <path d="M8,3.15794294 C7.6054299,2.85005569 7.10934285,2.66666667 6.57051001,2.66666667 C5.28446334,2.66666667 4.5,3.71133558 4.5,5 C4.5,6.28866442 5.28446334,7.33333333 6.57051001,7.33333333 C7.10934285,7.33333333 7.6054299,7.14994431 8,6.84205706 C7.48868251,7.54675288 6.69079904,8 5.79431218,8 C4.25105618,8 3,6.65685425 3,5 C3,3.34314575 4.25105618,2 5.79431218,2 C6.69079904,2 7.48868251,2.45324712 8,3.15794294 Z M8,6 C7.44771525,6 7,5.55228475 7,5 C7,4.44771525 7.44771525,4 8,4 C8.55228475,4 9,4.44771525 9,5 C9,5.55228475 8.55228475,6 8,6 Z" id="ornament" fill="#FFCC00"></path>
            <path d="M1,1 L1,17 L23,17 L23,1 L1,1 Z M1,0 L23,0 C23.5522847,-1.01453063e-16 24,0.44771525 24,1 L24,17 C24,17.5522847 23.5522847,18 23,18 L1,18 C0.44771525,18 6.76353751e-17,17.5522847 0,17 L0,1 C-6.76353751e-17,0.44771525 0.44771525,1.01453063e-16 1,0 Z" id="stroke" fill="#000000" fill-rule="nonzero" opacity="0.200000003"></path>
        </g>
    </g>
</svg>