<?xml version="1.0" encoding="UTF-8" standalone="no"?>
<svg width="24px" height="18px" viewBox="0 0 24 18" version="1.1" xmlns="http://www.w3.org/2000/svg" xmlns:xlink="http://www.w3.org/1999/xlink">
    <!-- Generator: Sketch 45.2 (43514) - http://www.bohemiancoding.com/sketch -->
    <title>flags/24x18/nz</title>
    <desc>Created with Sketch.</desc>
    <defs></defs>
    <g id="Flags" stroke="none" stroke-width="1" fill="none" fill-rule="evenodd">
        <g id="flags/24x18/nz">
            <path d="M1,0 L23,0 C23.5522847,-1.01453063e-16 24,0.44771525 24,1 L24,17 C24,17.5522847 23.5522847,18 23,18 L1,18 C0.44771525,18 6.76353751e-17,17.5522847 0,17 L0,1 C-6.76353751e-17,0.44771525 0.44771525,1.01453063e-16 1,0 Z" id="mask" fill="#273C83"></path>
            <path d="M0.875143198,0.00771887327 L6.1875,3.45760372 L11.5117428,0 L12,6.66133815e-16 L12,1.91860326 L7.90882356,4.57544431 L12,7.23228535 L12,9 L11.2793947,9 L6.1875,5.69328489 L1.09560526,9 L0,9 L0,7.4758132 L4.46617644,4.57544431 L0,1.67507541 L0,1 C-6.24571767e-17,0.489998449 0.381784927,0.0691675463 0.875143198,0.00771887327 Z" id="Combined-Shape" fill="#F7F7F7"></path>
            <path d="M12,0.231862511 L12,1.12613498 L6.68852942,4.57544431 L12,8.02475363 L12,8.9190261 L6,5.02258054 L2.77555756e-16,8.9190261 L0,8.02475363 L5.31147058,4.57544431 L5.82867088e-16,1.12613498 L0,1 C-2.89873661e-17,0.763300193 0.0822378206,0.545808058 0.219699817,0.374537241 L6,4.12830807 L12,0.231862511 L12,0.231862511 Z" id="Combined-Shape" fill="#DC1E35"></path>
            <polygon id="cross-outter" fill="#F7F7F7" points="8 3 12 3 12 7 8 7 8 9 4 9 4 7 0 7 0 3 4 3 4 0 8 0"></polygon>
            <polygon id="cross-inner" fill="#DC1E35" points="7 4 7 0 5 0 5 4 0 4 0 6 5 6 5 9 7 9 7 6 12 6 12 4"></polygon>
            <path d="M21,8 C20.4477153,8 20,7.55228475 20,7 C20,6.44771525 20.4477153,6 21,6 C21.5522847,6 22,6.44771525 22,7 C22,7.55228475 21.5522847,8 21,8 Z M18,5 C17.4477153,5 17,4.55228475 17,4 C17,3.44771525 17.4477153,3 18,3 C18.5522847,3 19,3.44771525 19,4 C19,4.55228475 18.5522847,5 18,5 Z M18,14 C17.4477153,14 17,13.5522847 17,13 C17,12.4477153 17.4477153,12 18,12 C18.5522847,12 19,12.4477153 19,13 C19,13.5522847 18.5522847,14 18,14 Z M15.5,9 C14.6715729,9 14,8.32842712 14,7.5 C14,6.67157288 14.6715729,6 15.5,6 C16.3284271,6 17,6.67157288 17,7.5 C17,8.32842712 16.3284271,9 15.5,9 Z" id="Combined-Shape" fill="#EF2800"></path>
            <path d="M1,1 L1,17 L23,17 L23,1 L1,1 Z M1,0 L23,0 C23.5522847,-1.01453063e-16 24,0.44771525 24,1 L24,17 C24,17.5522847 23.5522847,18 23,18 L1,18 C0.44771525,18 6.76353751e-17,17.5522847 0,17 L0,1 C-6.76353751e-17,0.44771525 0.44771525,1.01453063e-16 1,0 Z" id="stroke" fill="#000000" fill-rule="nonzero" opacity="0.200000003"></path>
        </g>
    </g>
</svg>