<?xml version="1.0" encoding="UTF-8" standalone="no"?>
<svg width="24px" height="18px" viewBox="0 0 24 18" version="1.1" xmlns="http://www.w3.org/2000/svg" xmlns:xlink="http://www.w3.org/1999/xlink">
    <!-- Generator: Sketch 45.2 (43514) - http://www.bohemiancoding.com/sketch -->
    <title>flags/24x18/pt</title>
    <desc>Created with Sketch.</desc>
    <defs></defs>
    <g id="Flags" stroke="none" stroke-width="1" fill="none" fill-rule="evenodd">
        <g id="flags/24x18/pt">
            <path d="M1,0 L23,0 C23.5522847,-1.01453063e-16 24,0.44771525 24,1 L24,17 C24,17.5522847 23.5522847,18 23,18 L1,18 C0.44771525,18 6.76353751e-17,17.5522847 0,17 L0,1 C-6.76353751e-17,0.44771525 0.44771525,1.01453063e-16 1,0 Z" id="mask" fill="#FF2936"></path>
            <path d="M1,0 L8,0 L8,18 L1,18 L1,18 C0.44771525,18 6.76353751e-17,17.5522847 0,17 L0,1 L0,1 C-6.76353751e-17,0.44771525 0.44771525,1.01453063e-16 1,0 Z" id="Rectangle" fill="#128415"></path>
            <path d="M8,13.75 C5.37664744,13.75 3.25,11.6233526 3.25,9 C3.25,6.37664744 5.37664744,4.25 8,4.25 C10.6233526,4.25 12.75,6.37664744 12.75,9 C12.75,11.6233526 10.6233526,13.75 8,13.75 Z M8,12.25 C9.79492544,12.25 11.25,10.7949254 11.25,9 C11.25,7.20507456 9.79492544,5.75 8,5.75 C6.20507456,5.75 4.75,7.20507456 4.75,9 C4.75,10.7949254 6.20507456,12.25 8,12.25 Z" id="Oval" fill="#FFFF00" fill-rule="nonzero"></path>
            <polygon id="Rectangle-26" fill="#F7F7F7" points="8 6.17157288 10.8284271 9 8 11.8284271 5.17157288 9"></polygon>
            <path d="M1,1 L1,17 L23,17 L23,1 L1,1 Z M1,0 L23,0 C23.5522847,-1.01453063e-16 24,0.44771525 24,1 L24,17 C24,17.5522847 23.5522847,18 23,18 L1,18 C0.44771525,18 6.76353751e-17,17.5522847 0,17 L0,1 C-6.76353751e-17,0.44771525 0.44771525,1.01453063e-16 1,0 Z" id="stroke" fill="#000000" fill-rule="nonzero" opacity="0.200000003"></path>
        </g>
    </g>
</svg>