<?xml version="1.0" encoding="UTF-8" standalone="no"?>
<svg width="24px" height="18px" viewBox="0 0 24 18" version="1.1" xmlns="http://www.w3.org/2000/svg" xmlns:xlink="http://www.w3.org/1999/xlink">
    <!-- Generator: Sketch 45.2 (43514) - http://www.bohemiancoding.com/sketch -->
    <title>flags/24x18/rs</title>
    <desc>Created with Sketch.</desc>
    <defs>
        <path d="M1,0 L23,0 C23.5522847,-1.01453063e-16 24,0.44771525 24,1 L24,17 C24,17.5522847 23.5522847,18 23,18 L1,18 C0.44771525,18 6.76353751e-17,17.5522847 0,17 L0,1 C-6.76353751e-17,0.44771525 0.44771525,1.01453063e-16 1,0 Z" id="path-1"></path>
    </defs>
    <g id="Flags" stroke="none" stroke-width="1" fill="none" fill-rule="evenodd">
        <g id="flags/24x18/rs">
            <mask id="mask-2" fill="white">
                <use xlink:href="#path-1"></use>
            </mask>
            <use id="mask" fill="#0C4076" xlink:href="#path-1"></use>
            <polygon id="Rectangle" fill="#F7F7F7" mask="url(#mask-2)" points="0 12 24 12 24 18 0 18"></polygon>
            <polygon id="Rectangle" fill="#C6363C" mask="url(#mask-2)" points="0 0 24 0 24 6 0 6"></polygon>
            <polygon id="ornament" fill="#C6363C" fill-rule="nonzero" mask="url(#mask-2)" points="3 4 12 4 12 10.9612497 7.5 14.5612497 3 10.9612497"></polygon>
            <polygon id="ornament" fill="#F7F7F7" mask="url(#mask-2)" points="6.66666667 6 5 6 5 10 7.5 12 10 10 10 6 8.33333333 6 10 4 5 4"></polygon>
            <path d="M1,1 L1,17 L23,17 L23,1 L1,1 Z M1,0 L23,0 C23.5522847,-1.01453063e-16 24,0.44771525 24,1 L24,17 C24,17.5522847 23.5522847,18 23,18 L1,18 C0.44771525,18 6.76353751e-17,17.5522847 0,17 L0,1 C-6.76353751e-17,0.44771525 0.44771525,1.01453063e-16 1,0 Z" id="stroke" fill="#000000" fill-rule="nonzero" opacity="0.200000003" mask="url(#mask-2)"></path>
        </g>
    </g>
</svg>