<?xml version="1.0" encoding="UTF-8" standalone="no"?>
<svg width="24px" height="18px" viewBox="0 0 24 18" version="1.1" xmlns="http://www.w3.org/2000/svg" xmlns:xlink="http://www.w3.org/1999/xlink">
    <!-- Generator: Sketch 45.2 (43514) - http://www.bohemiancoding.com/sketch -->
    <title>flags/24x18/sg</title>
    <desc>Created with Sketch.</desc>
    <defs></defs>
    <g id="Flags" stroke="none" stroke-width="1" fill="none" fill-rule="evenodd">
        <g id="flags/24x18/sg">
            <path d="M1,0 L23,0 C23.5522847,-1.01453063e-16 24,0.44771525 24,1 L24,17 C24,17.5522847 23.5522847,18 23,18 L1,18 C0.44771525,18 6.76353751e-17,17.5522847 0,17 L0,1 C-6.76353751e-17,0.44771525 0.44771525,1.01453063e-16 1,0 Z" id="mask" fill="#F7F7F7"></path>
            <path d="M1,0 L23,0 L23,0 C23.5522847,-1.01453063e-16 24,0.44771525 24,1 L24,9 L0,9 L0,1 L0,1 C-6.76353751e-17,0.44771525 0.44771525,1.01453063e-16 1,0 Z" id="Rectangle-18" fill="#D2143B"></path>
            <path d="M7,3.15794294 C6.6054299,2.85005569 6.10934285,2.66666667 5.57051001,2.66666667 C4.28446334,2.66666667 3.5,3.71133558 3.5,5 C3.5,6.28866442 4.28446334,7.33333333 5.57051001,7.33333333 C6.10934285,7.33333333 6.6054299,7.14994431 7,6.84205706 C6.48868251,7.54675288 5.69079904,8 4.79431218,8 C3.25105618,8 2,6.65685425 2,5 C2,3.34314575 3.25105618,2 4.79431218,2 C5.69079904,2 6.48868251,2.45324712 7,3.15794294 Z M9,3 L10,3 L10,4 L9,4 L9,3 Z M7,4 L8,4 L8,5 L7,5 L7,4 Z M8,6 L9,6 L9,7 L8,7 L8,6 Z M10,6 L11,6 L11,7 L10,7 L10,6 Z M11,4 L12,4 L12,5 L11,5 L11,4 Z" id="ornament" fill="#F7F7F7"></path>
            <path d="M1,1 L1,17 L23,17 L23,1 L1,1 Z M1,0 L23,0 C23.5522847,-1.01453063e-16 24,0.44771525 24,1 L24,17 C24,17.5522847 23.5522847,18 23,18 L1,18 C0.44771525,18 6.76353751e-17,17.5522847 0,17 L0,1 C-6.76353751e-17,0.44771525 0.44771525,1.01453063e-16 1,0 Z" id="stroke" fill="#000000" fill-rule="nonzero" opacity="0.200000003"></path>
        </g>
    </g>
</svg>