<?xml version="1.0" encoding="UTF-8" standalone="no"?>
<svg width="24px" height="18px" viewBox="0 0 24 18" version="1.1" xmlns="http://www.w3.org/2000/svg" xmlns:xlink="http://www.w3.org/1999/xlink">
    <!-- Generator: Sketch 45.2 (43514) - http://www.bohemiancoding.com/sketch -->
    <title>flags/24x18/si</title>
    <desc>Created with Sketch.</desc>
    <defs></defs>
    <g id="Flags" stroke="none" stroke-width="1" fill="none" fill-rule="evenodd">
        <g id="flags/24x18/si">
            <path d="M1,0 L23,0 C23.5522847,-1.01453063e-16 24,0.44771525 24,1 L24,17 C24,17.5522847 23.5522847,18 23,18 L1,18 C0.44771525,18 6.76353751e-17,17.5522847 0,17 L0,1 C-6.76353751e-17,0.44771525 0.44771525,1.01453063e-16 1,0 Z" id="mask" fill="#005DA4"></path>
            <path d="M0,12 L24,12 L24,17 L24,17 C24,17.5522847 23.5522847,18 23,18 L1,18 L1,18 C0.44771525,18 6.76353751e-17,17.5522847 0,17 L0,12 Z" id="Rectangle" fill="#ED1C24"></path>
            <path d="M1,0 L23,0 L23,0 C23.5522847,-1.01453063e-16 24,0.44771525 24,1 L24,6.75 L0,6.75 L0,1 L0,1 C-6.76353751e-17,0.44771525 0.44771525,1.01453063e-16 1,0 Z" id="Rectangle" fill="#F7F7F7"></path>
            <polygon id="Ornament" fill="#F7F7F7" fill-rule="nonzero" points="3 2 11 2 11 7.82842712 7 11.8284271 3 7.82842712"></polygon>
            <polygon id="Path" fill="#005DA4" points="5 4 5 7 7 9 9 7 9 4"></polygon>
            <path d="M1,1 L1,17 L23,17 L23,1 L1,1 Z M1,0 L23,0 C23.5522847,-1.01453063e-16 24,0.44771525 24,1 L24,17 C24,17.5522847 23.5522847,18 23,18 L1,18 C0.44771525,18 6.76353751e-17,17.5522847 0,17 L0,1 C-6.76353751e-17,0.44771525 0.44771525,1.01453063e-16 1,0 Z" id="stroke" fill="#000000" fill-rule="nonzero" opacity="0.200000003"></path>
        </g>
    </g>
</svg>