<?xml version="1.0" encoding="UTF-8" standalone="no"?>
<svg width="24px" height="18px" viewBox="0 0 24 18" version="1.1" xmlns="http://www.w3.org/2000/svg" xmlns:xlink="http://www.w3.org/1999/xlink">
    <!-- Generator: Sketch 45.2 (43514) - http://www.bohemiancoding.com/sketch -->
    <title>flags/24x18/sk</title>
    <desc>Created with Sketch.</desc>
    <defs>
        <path d="M1,0 L23,0 C23.5522847,-1.01453063e-16 24,0.44771525 24,1 L24,17 C24,17.5522847 23.5522847,18 23,18 L1,18 C0.44771525,18 6.76353751e-17,17.5522847 0,17 L0,1 C-6.76353751e-17,0.44771525 0.44771525,1.01453063e-16 1,0 Z" id="path-1"></path>
    </defs>
    <g id="Flags" stroke="none" stroke-width="1" fill="none" fill-rule="evenodd">
        <g id="flags/24x18/sk">
            <mask id="mask-2" fill="white">
                <use xlink:href="#path-1"></use>
            </mask>
            <use id="mask" fill="#0B4EA2" xlink:href="#path-1"></use>
            <polygon id="Rectangle" fill="#EE1C25" mask="url(#mask-2)" points="0 12 24 12 24 18 0 18"></polygon>
            <polygon id="Rectangle" fill="#F7F7F7" mask="url(#mask-2)" points="0 0 24 0 24 6 0 6"></polygon>
            <g id="ornament" mask="url(#mask-2)">
                <g transform="translate(3.000000, 1.000000)">
                    <polygon id="Ornament" fill="#F7F7F7" fill-rule="nonzero" points="0 0 10 0 10 8.07036752 5 11.4037009 2.22044605e-16 8.07036752"></polygon>
                    <polygon id="Path" fill="#0B4EA2" fill-rule="evenodd" points="2 2 2 7 5 9 8 7 8 2"></polygon>
                    <polygon id="Ornament" fill="#EE1C25" fill-rule="evenodd" points="2 2 8 2 8 5 2 5"></polygon>
                    <polygon id="Rectangle-6" fill="#FFFFFF" fill-rule="evenodd" points="4 3 6 3 6 7 4 7"></polygon>
                </g>
            </g>
            <path d="M1,1 L1,17 L23,17 L23,1 L1,1 Z M1,0 L23,0 C23.5522847,-1.01453063e-16 24,0.44771525 24,1 L24,17 C24,17.5522847 23.5522847,18 23,18 L1,18 C0.44771525,18 6.76353751e-17,17.5522847 0,17 L0,1 C-6.76353751e-17,0.44771525 0.44771525,1.01453063e-16 1,0 Z" id="stroke" fill="#000000" fill-rule="nonzero" opacity="0.200000003" mask="url(#mask-2)"></path>
        </g>
    </g>
</svg>