<?xml version="1.0" encoding="UTF-8" standalone="no"?>
<svg width="24px" height="18px" viewBox="0 0 24 18" version="1.1" xmlns="http://www.w3.org/2000/svg" xmlns:xlink="http://www.w3.org/1999/xlink">
    <!-- Generator: Sketch 45.2 (43514) - http://www.bohemiancoding.com/sketch -->
    <title>flags/24x18/tr</title>
    <desc>Created with Sketch.</desc>
    <defs></defs>
    <g id="Flags" stroke="none" stroke-width="1" fill="none" fill-rule="evenodd">
        <g id="flags/24x18/tr">
            <path d="M1,0 L23,0 C23.5522847,-1.01453063e-16 24,0.44771525 24,1 L24,17 C24,17.5522847 23.5522847,18 23,18 L1,18 C0.44771525,18 6.76353751e-17,17.5522847 0,17 L0,1 C-6.76353751e-17,0.44771525 0.44771525,1.01453063e-16 1,0 Z" id="mask" fill="#E30A17"></path>
            <circle id="Oval-14" fill="#F7F7F7" cx="12" cy="9" r="1"></circle>
            <path d="M10.5999999,5.96023889 C9.90083266,5.36228234 8.99305552,5.00117024 8.00093613,5.00117024 C5.79128012,5.00117024 4,6.79245036 4,9.00210637 C4,11.2117624 5.79128012,13.0030425 8.00093613,13.0030425 C8.99305552,13.0030425 9.90083266,12.6419304 10.5999999,12.0439739 C10.2857514,12.1470839 9.95004403,12.2028553 9.60131059,12.2028553 C7.83358578,12.2028553 6.40056168,10.7698312 6.40056168,9.00210637 C6.40056168,7.23438156 7.83358578,5.80135747 9.60131059,5.80135747 C9.95004403,5.80135747 10.2857514,5.85712884 10.5999999,5.96023889 L10.5999999,5.96023889 Z" id="Combined-Shape" fill="#F7F7F7"></path>
            <path d="M1,1 L1,17 L23,17 L23,1 L1,1 Z M1,0 L23,0 C23.5522847,-1.01453063e-16 24,0.44771525 24,1 L24,17 C24,17.5522847 23.5522847,18 23,18 L1,18 C0.44771525,18 6.76353751e-17,17.5522847 0,17 L0,1 C-6.76353751e-17,0.44771525 0.44771525,1.01453063e-16 1,0 Z" id="stroke" fill="#000000" fill-rule="nonzero" opacity="0.200000003"></path>
        </g>
    </g>
</svg>