<?xml version="1.0" encoding="UTF-8" standalone="no"?>
<svg width="24px" height="18px" viewBox="0 0 24 18" version="1.1" xmlns="http://www.w3.org/2000/svg" xmlns:xlink="http://www.w3.org/1999/xlink">
    <!-- Generator: Sketch 45.2 (43514) - http://www.bohemiancoding.com/sketch -->
    <title>flags/24x18/za</title>
    <desc>Created with Sketch.</desc>
    <defs></defs>
    <g id="Flags" stroke="none" stroke-width="1" fill="none" fill-rule="evenodd">
        <g id="flags/24x18/za">
            <path d="M1,0 L23,0 C23.5522847,-1.01453063e-16 24,0.44771525 24,1 L24,17 C24,17.5522847 23.5522847,18 23,18 L1,18 C0.44771525,18 6.76353751e-17,17.5522847 0,17 L0,1 C-6.76353751e-17,0.44771525 0.44771525,1.01453063e-16 1,0 Z" id="mask" fill="#F7F7F7"></path>
            <path d="M1,0 L23,0 L23,0 C23.5522847,-1.01453063e-16 24,0.44771525 24,1 L24,5.25 L0,5.25 L0,1 L0,1 C-6.76353751e-17,0.44771525 0.44771525,1.01453063e-16 1,0 Z" id="Rectangle-11" fill="#CE1126"></path>
            <path d="M0,12.75 L24,12.75 L24,17 L24,17 C24,17.5522847 23.5522847,18 23,18 L1,18 L1,18 C0.44771525,18 6.76353751e-17,17.5522847 0,17 L0,12.75 Z" id="Rectangle-11" fill="#002395"></path>
            <path d="M3.25764407,8.8817842e-16 L9.6862155,5 L24,5 L24,13 L9.6862155,13 L3.25764407,18 L1,18 C0.44771525,18 6.76353751e-17,17.5522847 0,17 L0,1 C-6.76353751e-17,0.44771525 0.44771525,1.01453063e-16 1,0 L3.25764407,8.8817842e-16 Z" id="Combined-Shape" fill="#F7F7F7"></path>
            <path d="M0.330572155,17.7428883 C0.127592427,17.5598631 3.61065013e-17,17.294832 0,17 L0,1 C-3.61065013e-17,0.705168042 0.127592427,0.440136893 0.330572155,0.257111676 L9,7 L24,7 L24,11 L9,11 L0.330572155,17.7428883 L0.330572155,17.7428883 Z" id="Combined-Shape" fill="#007A4D"></path>
            <polygon id="Triangle-3" fill="#FFB612" points="6 9 0 14 0 4"></polygon>
            <polygon id="Triangle-3" fill="#000000" points="4 9 0 12 0 6"></polygon>
            <path d="M1,1 L1,17 L23,17 L23,1 L1,1 Z M1,0 L23,0 C23.5522847,-1.01453063e-16 24,0.44771525 24,1 L24,17 C24,17.5522847 23.5522847,18 23,18 L1,18 C0.44771525,18 6.76353751e-17,17.5522847 0,17 L0,1 C-6.76353751e-17,0.44771525 0.44771525,1.01453063e-16 1,0 Z" id="stroke" fill="#000000" fill-rule="nonzero" opacity="0.200000003"></path>
        </g>
    </g>
</svg>