<?xml version="1.0" encoding="UTF-8"?>
<svg width="16px" height="16px" viewBox="0 0 16 16" version="1.1" xmlns="http://www.w3.org/2000/svg" xmlns:xlink="http://www.w3.org/1999/xlink">
    <!-- Generator: Sketch 45.2 (43514) - http://www.bohemiancoding.com/sketch -->
    <title>icons/16/error</title>
    <desc>Created with Sketch.</desc>
    <defs></defs>
    <g stroke="none" stroke-width="1" fill="none" fill-rule="evenodd">
        <g fill="#151922" fill-rule="nonzero">
            <path d="M15.3784655,13.5158012 L8.90185246,1.53425102 C8.51738664,0.821916327 7.48260098,0.821916327 7.09711264,1.53425102 L0.621522109,13.5158012 C0.258529114,14.187777 0.752404091,15 1.52440328,15 L14.4766069,15 C15.2475835,15 15.7414585,14.187777 15.3784655,13.5158012 Z M7.99999381,12.9820547 C7.43556526,12.9820547 6.97747833,12.530035 6.97747833,11.9730821 C6.97747833,11.4161291 7.43556526,10.9641094 7.99999381,10.9641094 C8.56442235,10.9641094 9.02250929,11.4161291 9.02250929,11.9730821 C9.02250929,12.530035 8.56442235,12.9820547 7.99999381,12.9820547 Z M9.02250929,9.95513675 L6.97747833,9.95513675 L6.97747833,5.91924615 L9.02250929,5.91924615 L9.02250929,9.95513675 Z"></path>
        </g>
    </g>
</svg>