<?xml version="1.0" encoding="UTF-8" standalone="no"?>
<svg width="16px" height="16px" viewBox="0 0 16 16" version="1.1" xmlns="http://www.w3.org/2000/svg" xmlns:xlink="http://www.w3.org/1999/xlink">
    <!-- Generator: Sketch 41 (35326) - http://www.bohemiancoding.com/sketch -->
    <title>icon-eye</title>
    <desc>Created with Sketch.</desc>
    <defs></defs>
    <g id="Page-1" stroke="none" stroke-width="1" fill="none" fill-rule="evenodd">
        <g id="icon-eye" fill="#444444">
            <path d="M8.0001,14 C12.7071,14 15.7441,8.716 15.8711,8.492 C16.0421,8.188 16.0431,7.816 15.8721,7.512 C15.7461,7.287 12.7311,2 8.0001,2 C3.2451,2 0.2511,7.289 0.1261,7.514 C-0.0429,7.817 -0.0419,8.186 0.1281,8.489 C0.2541,8.713 3.2691,14 8.0001,14 Z M8.0001,4 C10.8391,4 13.0361,6.835 13.8181,8 C13.0341,9.166 10.8371,12 8.0001,12 C5.1591,12 2.9621,9.162 2.1811,7.999 C2.9581,6.835 5.1461,4 8.0001,4 Z M8.0001,6 C9.1051,6 10.0001,6.895 10.0001,8 C10.0001,9.105 9.1051,10 8.0001,10 C6.8951,10 6.0001,9.105 6.0001,8 C6.0001,6.895 6.8951,6 8.0001,6 Z" id="shape"></path>
        </g>
    </g>
</svg>
