<?xml version="1.0" encoding="UTF-8" standalone="no"?>
<svg width="16px" height="16px" viewBox="0 0 16 16" version="1.1" xmlns="http://www.w3.org/2000/svg" xmlns:xlink="http://www.w3.org/1999/xlink">
    <!-- Generator: Sketch 41 (35326) - http://www.bohemiancoding.com/sketch -->
    <title>icon-lock</title>
    <desc>Created with Sketch.</desc>
    <defs></defs>
    <g id="Page-1" stroke="none" stroke-width="1" fill="none" fill-rule="evenodd">
        <g id="icon-lock" fill="#444444">
            <path d="M12,7 L12,4.99582624 C12,2.79652125 10.209139,1 8,1 C5.79535615,1 4,2.78899235 4,4.99582624 L4,7 L3.00247329,7 C2.45576096,7 2,7.44661595 2,7.99754465 L2,15.0024554 C2,15.5536886 2.44882258,16 3.00247329,16 L12.9975267,16 C13.544239,16 14,15.553384 14,15.0024554 L14,7.99754465 C14,7.4463114 13.5511774,7 12.9975267,7 L12,7 L12,7 Z M6,7 L6,5.0085302 C6,3.8992496 6.88772964,3 8,3 C9.1045695,3 10,3.90195036 10,5.0085302 L10,7 L6,7 L6,7 Z" id="Combined-Shape"></path>
        </g>
    </g>
</svg>
