<?xml version="1.0" encoding="UTF-8"?>
<svg width="16px" height="16px" viewBox="0 0 16 16" version="1.1" xmlns="http://www.w3.org/2000/svg" xmlns:xlink="http://www.w3.org/1999/xlink">
    <!-- Generator: Sketch 45.2 (43514) - http://www.bohemiancoding.com/sketch -->
    <title>icons/16/pin</title>
    <desc>Created with Sketch.</desc>
    <defs></defs>
    <g stroke="none" stroke-width="1" fill="none" fill-rule="evenodd">
        <g fill="#151922" fill-rule="nonzero">
            <path d="M8.04916643,0 C4.12177371,0 1,3.09516381 1,6.98907956 C1,8.88611544 1.70491664,10.6833073 3.11474993,11.9812793 C3.21545231,12.0811232 7.24354741,15.675507 7.34424979,15.775351 C7.7470593,16.074883 8.35127356,16.074883 8.6533807,15.775351 C8.75408308,15.675507 12.8828806,12.0811232 12.8828806,11.9812793 C14.2927138,10.6833073 14.9976305,8.88611544 14.9976305,6.98907956 C15.0983329,3.09516381 11.9765592,0 8.04916643,0 Z M8.04916643,8.98595944 C6.94144028,8.98595944 6.03511888,8.08736349 6.03511888,6.98907956 C6.03511888,5.89079563 6.94144028,4.99219969 8.04916643,4.99219969 C9.15689259,4.99219969 10.063214,5.89079563 10.063214,6.98907956 C10.063214,8.08736349 9.15689259,8.98595944 8.04916643,8.98595944 Z"></path>
        </g>
    </g>
</svg>