<?xml version="1.0" encoding="UTF-8"?>
<svg width="16px" height="16px" viewBox="0 0 16 16" version="1.1" xmlns="http://www.w3.org/2000/svg" xmlns:xlink="http://www.w3.org/1999/xlink">
    <!-- Generator: Sketch 45.2 (43514) - http://www.bohemiancoding.com/sketch -->
    <title>icons/16/placeholder</title>
    <desc>Created with Sketch.</desc>
    <defs></defs>
    <g stroke="none" stroke-width="1" fill="none" fill-rule="evenodd">
        <g fill="#151922" fill-rule="nonzero">
            <path d="M13.7,2.3 C15.2,3.9 16,5.9 16,8 C16,10.1 15.2,12.1 13.7,13.7 C12.1,15.2 10.1,16 8,16 C5.9,16 3.9,15.2 2.3,13.7 C0.8,12.1 0,10.1 0,8 C0,5.9 0.8,3.9 2.3,2.3 C3.9,0.8 5.9,0 8,0 C10.1,0 12.1,0.8 13.7,2.3 Z M2,8 C2,9.6 2.6,11.1 3.7,12.3 L12.2,3.8 C11.1,2.6 9.6,2 8,2 C6.4,2 5,2.7 3.8,3.8 C2.6,4.9 2,6.4 2,8 Z"></path>
        </g>
    </g>
</svg>