<?xml version="1.0" encoding="UTF-8"?>
<svg width="16px" height="16px" viewBox="0 0 16 16" version="1.1" xmlns="http://www.w3.org/2000/svg" xmlns:xlink="http://www.w3.org/1999/xlink">
    <!-- Generator: Sketch 45.2 (43514) - http://www.bohemiancoding.com/sketch -->
    <title>icons/16/twitter</title>
    <desc>Created with Sketch.</desc>
    <defs></defs>
    <g stroke="none" stroke-width="1" fill="none" fill-rule="evenodd">
        <g fill="#151922">
            <path d="M16,3.5 C15.4,3.8 14.8,3.9 14.1,4 C14.8,3.6 15.3,3 15.5,2.2 C14.9,2.6 14.2,2.8 13.4,3 C12.8,2.4 11.9,2 11,2 C9.3,2 7.8,3.5 7.8,5.3 C7.8,5.6 7.8,5.8 7.9,6 C5.2,5.9 2.7,4.6 1.1,2.6 C0.8,3.1 0.7,3.6 0.7,4.3 C0.7,5.4 1.3,6.4 2.2,7 C1.7,7 1.2,6.8 0.7,6.6 L0.7,6.6 C0.7,8.2 1.8,9.5 3.3,9.8 C3,9.9 2.7,9.9 2.4,9.9 C2.2,9.9 2,9.9 1.8,9.8 C2.2,11.1 3.4,12.1 4.9,12.1 C3.8,13 2.4,13.5 0.8,13.5 L0,13.5 C1.5,14.4 3.2,15 5,15 C11,15 14.3,10 14.3,5.7 L14.3,5.3 C15,4.8 15.6,4.2 16,3.5 L16,3.5 Z"></path>
        </g>
    </g>
</svg>